<svg width="181" height="178" viewBox="0 0 181 178" fill="none" xmlns="http://www.w3.org/2000/svg">
<path d="M104.097 1.96109C102.874 3.04423 102.757 4.90998 103.835 6.12816C128.602 34.1616 125.909 77.0355 97.8161 101.968L54.436 140.38L57.1341 97.4898C57.208 95.8613 55.9472 94.4863 54.3179 94.419C52.7286 94.3536 51.3679 95.5584 51.2407 97.1438L48.1002 147.147C47.9958 148.774 49.2308 150.172 50.8584 150.27C50.8607 150.27 50.8635 150.27 50.8658 150.27L100.882 153.205C102.507 153.328 103.931 152.111 104.061 150.486C104.192 148.86 102.98 147.443 101.354 147.319C101.32 147.316 101.286 147.314 101.252 147.313L58.3423 144.791L101.722 106.379C132.258 79.279 135.185 32.6768 108.265 2.20561C107.186 0.987635 105.32 0.877961 104.097 1.96109Z" fill="#FFDE17"/>
</svg>
