<svg width="60" height="60" viewBox="0 0 60 60" fill="none" xmlns="http://www.w3.org/2000/svg">
<rect width="60" height="60" rx="10" fill="#FFDE17"/>
<path d="M35.0244 16.9804H26.3915C25.8414 16.9804 25.3954 16.5344 25.3954 15.9843V12.9961C25.3954 12.446 25.8414 12 26.3915 12H35.0244C35.5745 12 36.0205 12.446 36.0205 12.9961V15.9843C36.0205 16.5344 35.5745 16.9804 35.0244 16.9804Z" fill="#0F0F2D"/>
<path d="M27.7187 33.583V32.5869H28.7148C29.2641 32.5869 29.7109 33.0338 29.7109 33.583V34.5791H28.7148C28.1656 34.5791 27.7187 34.1323 27.7187 33.583Z" fill="#0F0F2D"/>
<path d="M41.001 39.3591H31.7042V36.5711H32.7002C34.348 36.5711 35.6885 35.2306 35.6885 33.5829V31.5907C35.6885 31.0406 35.2425 30.5946 34.6924 30.5946H32.7002C31.9354 30.5946 31.2372 30.8837 30.7081 31.3579C30.1789 30.8836 29.4807 30.5946 28.7159 30.5946H26.7237C26.1736 30.5946 25.7276 31.0406 25.7276 31.5907V33.5829C25.7276 35.2306 27.0681 36.5711 28.7159 36.5711H29.712V39.3591H20.4151V28.6021H41.001V39.3591Z" fill="#0F0F2D"/>
<path d="M41.001 45.0038C41.001 45.5539 40.555 45.9999 40.0049 45.9999H21.4112C20.8611 45.9999 20.4151 45.5539 20.4151 45.0038V41.3511H41.001V45.0038Z" fill="#0F0F2D"/>
<path d="M32.6992 32.5869H33.6953V33.583C33.6953 34.1323 33.2485 34.5791 32.6992 34.5791H31.7031V33.583C31.7031 33.0338 32.15 32.5869 32.6992 32.5869Z" fill="#0F0F2D"/>
<path d="M22.9861 22.0464L26.3917 20.9111V18.9727H35.0244V20.9111L38.4301 22.0464C39.8717 22.5271 41.001 24.094 41.001 25.6136V26.6098H20.4151V25.6136C20.4151 24.094 21.5444 22.5271 22.9861 22.0464Z" fill="#0F0F2D"/>
</svg>
