<svg width="60" height="60" viewBox="0 0 60 60" fill="none" xmlns="http://www.w3.org/2000/svg">
<rect width="60" height="60" rx="10" fill="#FFDE17"/>
<path d="M29.3591 20.0815C29.5354 20.2897 29.7946 20.4101 30.0673 20.4101C30.3409 20.4101 30.6001 20.2912 30.7772 20.0823C31.57 19.1451 32.7465 17.4239 32.7465 15.4546C32.7465 13.487 31.5708 11.7666 30.778 10.8286C30.6009 10.6204 30.3425 10.5 30.0689 10.5C29.7962 10.5 29.5361 10.6188 29.3599 10.8278C28.5663 11.765 27.3914 13.4862 27.3906 15.4546C27.3914 17.4231 28.5655 19.1443 29.3591 20.0815Z" fill="#0F0F2D"/>
<path d="M30.0739 26.5318C30.2191 26.5382 33.7061 26.677 35.7631 24.6208C37.1541 23.229 37.541 21.1808 37.6431 19.9573C37.6654 19.6853 37.5673 19.4165 37.3743 19.2235C37.1812 19.0305 36.9125 18.9324 36.6397 18.9555C35.4162 19.0576 33.3664 19.4436 31.9738 20.8346C30.4376 22.3724 30.1281 24.7109 30.0723 25.8539C30.0173 24.7109 29.707 22.3724 28.17 20.8346C26.7774 19.4428 24.7292 19.0568 23.5049 18.9555C23.2329 18.9324 22.9642 19.0313 22.7711 19.2243C22.5781 19.4181 22.4808 19.6861 22.5031 19.9581C22.6052 21.1816 22.9913 23.2298 24.3823 24.6208C26.4417 26.677 29.9279 26.5382 30.0739 26.5318Z" fill="#0F0F2D"/>
<path d="M31.9757 28.2138C30.4396 29.7515 30.1301 32.0893 30.0743 33.233C30.0192 32.0893 29.709 29.7515 28.172 28.2138C26.7794 26.822 24.7312 26.4359 23.5069 26.3346C23.2349 26.3123 22.9661 26.4104 22.7731 26.6034C22.5801 26.7964 22.4828 27.0652 22.5051 27.3372C22.6072 28.5607 22.9932 30.6097 24.3842 31.9999C26.4412 34.0569 29.9267 33.9173 30.0735 33.911C30.2186 33.9181 33.7057 34.0577 35.7627 31.9999C37.1545 30.6081 37.5405 28.5599 37.6426 27.3356C37.6649 27.0636 37.5668 26.7948 37.3738 26.6026C37.1808 26.4096 36.912 26.3115 36.6392 26.3346C35.4165 26.4359 33.3683 26.822 31.9757 28.2138Z" fill="#0F0F2D"/>
<path d="M31.9757 35.5949C30.4395 37.1326 30.13 39.4696 30.0742 40.6141C30.0192 39.4696 29.7089 37.1326 28.172 35.5949C26.7802 34.2023 24.7319 33.817 23.5084 33.7157C23.2357 33.6934 22.9677 33.7915 22.7746 33.9837C22.5816 34.1759 22.4827 34.4455 22.5051 34.7167C22.6072 35.9394 22.9924 37.99 24.3842 39.3802C25.7911 40.788 27.8681 41.1668 29.086 41.2642V46.5825C29.086 47.1855 29.5039 47.6744 30.1077 47.6744C30.7107 47.6744 31.1294 47.1855 31.1294 46.5825V41.2586C32.3553 41.1533 34.3804 40.7625 35.7626 39.381C37.1536 37.99 37.5405 35.9418 37.6426 34.7175C37.6649 34.4455 37.5668 34.1759 37.3738 33.9837C37.1808 33.7907 36.912 33.6926 36.6392 33.7157C35.4165 33.8162 33.3683 34.2023 31.9757 35.5949Z" fill="#0F0F2D"/>
</svg>
