<svg width="60" height="60" viewBox="0 0 60 60" fill="none" xmlns="http://www.w3.org/2000/svg">
<rect width="60" height="60" rx="10" fill="#FFDE17"/>
<path d="M36.7452 17H18.5728C17.715 17 17.0195 17.6954 17.0195 18.5533C17.0195 19.4112 17.715 20.1065 18.5728 20.1065L21.8653 20.1102C22.3456 20.1102 22.7351 20.4996 22.7351 20.98C22.7351 21.4604 22.3456 21.8499 21.8653 21.8499H19.1087V28.4468H18.5728C17.715 28.4468 17.0195 29.1421 17.0195 30.0001C17.0195 30.8579 17.715 31.5534 18.5728 31.5534L21.8653 31.5578C22.3456 31.5578 22.7351 31.9473 22.7351 32.4277C22.7351 32.9081 22.3456 33.2975 21.8653 33.2975H19.1087V39.8935H18.5728C17.715 39.8935 17.0195 40.5889 17.0195 41.4467C17.0195 42.3046 17.715 43 18.5728 43H32.2552C30.5579 41.6125 29.4724 39.5032 29.4724 37.145C29.4724 35.4046 30.5547 33.0986 32.7813 30.0952C34.3175 28.0231 35.8326 26.3928 35.8964 26.3245L36.2094 25.9887V20.1065H36.7453C37.6031 20.1065 38.2986 19.4112 38.2986 18.5533C38.2985 17.6954 37.6031 17 36.7452 17Z" fill="#0F0F2D"/>
<path d="M40.3994 31.3623C39.0392 29.5277 37.6597 28.0434 37.6459 28.0286C37.5756 27.9532 37.4771 27.9104 37.374 27.9104C37.2708 27.9104 37.1724 27.9532 37.102 28.0286C37.0882 28.0434 35.7086 29.5277 34.3486 31.3623C32.4907 33.8683 31.5488 35.8136 31.5488 37.1442C31.5488 40.3563 34.1621 42.9697 37.3741 42.9697C40.5861 42.9697 43.1995 40.3563 43.1995 37.1442C43.1993 35.8135 42.2572 33.8683 40.3994 31.3623ZM37.9557 41.0845C37.6504 41.1567 37.3357 41.1932 37.0202 41.1932C34.7785 41.1932 32.9547 39.3694 32.9547 37.1277C32.9547 36.8185 33.0498 36.2587 33.503 35.3462C33.5486 35.2544 33.6536 35.2089 33.7517 35.2381C33.8497 35.2673 33.9127 35.3629 33.9006 35.4647C33.8902 35.5525 33.885 35.6351 33.885 35.7104C33.885 38.1132 35.5939 40.2005 37.9485 40.6732C38.0456 40.6926 38.1158 40.7771 38.1176 40.876C38.1194 40.975 38.052 41.0617 37.9557 41.0845Z" fill="#0F0F2D"/>
</svg>
