<svg width="335" height="500" viewBox="0 0 335 500" fill="none" xmlns="http://www.w3.org/2000/svg">
<rect width="335" height="500" rx="20" fill="#191955"/>
<mask id="mask0" style="mask-type:alpha" maskUnits="userSpaceOnUse" x="0" y="0" width="335" height="500">
<rect width="335" height="500" rx="20" fill="#49B2FE"/>
</mask>
<g mask="url(#mask0)">
<path d="M221.536 466.401C218.94 464.035 214.305 459.814 211.245 456.984C200.769 447.336 201.14 447.568 198.035 447.243C195.763 446.965 195.022 447.058 194.002 447.707C192.982 448.403 192.148 448.449 188.486 448.171C183.804 447.846 182.738 448.171 178.195 451.279C175.785 452.949 174.951 452.81 172.077 450.258L169.991 448.449L170.825 447.058C171.938 445.202 171.845 444.553 170.315 443.393C169.342 442.697 168.786 441.631 168.183 439.497C166.7 434.116 166.468 433.559 165.634 433.559C165.17 433.559 164.336 434.07 163.733 434.719C163.131 435.322 162.528 435.879 162.343 435.879C162.203 435.879 161.415 434.905 160.581 433.791C159.793 432.632 158.866 431.704 158.542 431.704C158.263 431.704 157.429 432.261 156.687 432.91C155.065 434.487 153.953 433.838 154.323 431.518C154.555 430.127 154.416 429.941 152.191 428.735C150.893 428.039 149.827 427.204 149.827 426.926C149.827 426.601 150.893 425.627 152.191 424.746C154.416 423.262 154.648 423.215 156.456 423.633C159.469 424.421 165.402 424.004 168.878 422.798L171.984 421.777L174.255 423.262C177.037 425.024 177.685 425.071 181.162 423.54C183.294 422.566 184.36 422.38 186.029 422.566C188.069 422.798 188.439 422.659 192.055 420.246C194.419 418.669 197.247 417.231 199.147 416.675C201.187 416.025 202.531 415.329 202.855 414.773C204.663 411.433 205.636 410.366 207.166 410.088C208.14 409.902 210.318 408.511 212.682 406.655C217.827 402.573 218.615 402.202 220.191 402.759C221.999 403.362 222.092 405.635 220.377 409.949C219.125 413.149 217.503 420.71 217.503 423.494C217.503 424.978 217.781 424.978 221.582 423.818C223.204 423.308 224.78 422.89 225.105 422.89C225.429 422.89 226.171 423.725 226.727 424.746C227.283 425.766 227.979 426.601 228.257 426.601C228.535 426.601 230.714 425.117 233.124 423.354C237.11 420.293 237.435 419.968 237.435 418.484C237.435 417.046 237.574 416.86 238.547 416.86C239.335 416.86 240.355 416.118 241.792 414.448L243.878 412.082L245.315 415.283C246.149 417.046 247.076 419.133 247.447 419.922L248.05 421.406L244.388 422.89C242.348 423.679 240.68 424.607 240.68 424.885C240.68 425.163 241.329 426.045 242.117 426.88L243.553 428.364L242.395 429.385C241.653 430.034 241.097 431.147 240.911 432.307C240.726 433.374 239.938 435.508 239.196 437.085C237.898 439.822 237.806 440.239 237.991 444.97C238.13 449.563 238.269 450.212 239.428 451.975C240.633 453.877 240.772 453.969 243.136 453.969C245.454 453.969 245.686 454.062 248.003 456.428C249.348 457.773 250.414 459.165 250.414 459.489C250.414 459.86 249.997 461.762 249.44 463.757C248.699 466.494 248.235 467.468 247.54 467.653C247.03 467.839 244.666 467.7 242.348 467.375C238.362 466.865 237.991 466.865 235.812 467.793C233.68 468.72 227.469 470.668 226.635 470.668C226.449 470.668 224.178 468.72 221.536 466.401Z" fill="#084C94"/>
<path d="M257.32 475.4C256.903 475.214 255.466 473.73 254.075 472.106C249.625 466.865 249.904 467.468 250.599 464.453C250.97 463.015 251.294 461.716 251.387 461.669C252.129 461.066 261.075 456.289 261.492 456.289C261.77 456.289 262.743 456.613 263.624 457.077C265.246 457.819 265.478 457.819 269.465 456.799C271.736 456.196 273.729 455.778 273.868 455.917C273.961 456.057 272.802 458.051 271.272 460.417C269.743 462.736 267.889 465.844 267.147 467.282C265.617 470.344 260.936 475.121 259.221 475.493C258.572 475.585 257.737 475.585 257.32 475.4Z" fill="#084C94"/>
<path d="M311.758 298.017C310.102 291.597 311.836 298.065 310.909 293.936C309.936 289.761 310.117 289.437 308.077 287.628L305.945 285.726L306.733 282.386C307.706 278.397 308.077 279.835 301.773 261.93L297.091 248.71L296.767 242.772C296.35 235.86 296.164 235.397 291.807 232.289C290.138 231.129 288.284 229.737 287.635 229.227L286.569 228.3L287.728 226.073C289.397 222.965 289.026 222.037 286.106 222.037H283.834L281.702 225.98C280.172 228.81 279.616 230.248 279.802 230.99C279.987 231.547 281.47 233.124 283.093 234.469C284.947 235.953 286.106 237.298 286.106 237.809C286.106 238.319 285.967 238.736 285.781 238.736C285.596 238.736 283.973 237.298 282.166 235.536C278.643 232.103 276.789 231.129 275.074 231.918C273.776 232.474 273.544 232.242 272.2 228.856C271.273 226.398 271.041 226.212 269.697 226.212C267.75 226.166 267.472 225.934 265.71 222.826C264.412 220.46 264.041 220.135 262.419 219.857C260.843 219.625 260.611 219.44 260.611 218.326C260.611 216.796 262.095 214.755 265.849 211.183C267.425 209.652 269.372 207.333 270.114 206.08C271.273 204.132 271.736 203.715 273.034 203.576C274.193 203.483 274.795 203.112 275.352 202.091C276.001 200.978 276.696 200.653 279.245 200.05C283.881 198.983 283.834 198.983 285.827 202.601C286.801 204.411 287.867 205.988 288.238 206.127C288.609 206.266 289.907 205.524 291.112 204.503C293.244 202.741 293.569 202.601 296.767 202.509L300.151 202.37L300.985 199.354C301.449 197.684 301.866 195.69 301.866 194.901C301.866 194.113 302.376 192.164 303.025 190.541C303.674 188.917 304.183 186.876 304.183 186.041V184.511H306.872C308.309 184.511 309.746 184.65 310.024 184.835C310.302 185.021 311.924 190.077 313.639 196.107C315.679 203.344 317.162 207.75 318.089 209.235C318.877 210.441 319.48 211.647 319.48 211.832C319.48 212.018 317.626 212.76 315.355 213.409C313.083 214.059 311.044 214.894 310.812 215.172C310.534 215.497 310.117 218.094 309.839 220.97C309.421 225.331 309.421 226.398 309.978 227.789C311.044 230.34 310.858 230.526 308.541 229.274C304.462 227.001 303.998 227.789 306.269 233.124C307.15 235.211 307.892 237.159 307.892 237.391C307.892 237.623 307.057 238.876 306.038 240.174C305.018 241.473 304.183 242.679 304.183 242.865C304.183 243.932 315.494 261.28 316.56 261.837C317.023 262.069 318.46 262.115 319.712 261.976L320.484 260.538L320.805 258.51C321.844 257.344 322.482 257.719 323.224 257.488C324.197 257.209 324.811 258.312 325.552 259.657C325.83 260.213 327.217 260.914 328.008 262.196C330.999 264.226 334.798 263.425 337.591 264.805C336.518 268.996 336.863 273.687 336.515 271.642C335.823 267.579 337.707 273.904 339.376 276.919L346.802 279.323L347.264 282.357C343.695 285.419 345.04 294.074 344.733 293.558C343.001 290.652 344.607 293.618 351.914 298.317C353.768 299.569 351.368 307.735 353.676 310.789C357.543 314.505 357.889 314.965 359.683 318.511L362 328.49L321.335 308.543C319.001 306.375 316.691 303.315 316.552 303.362C316.413 303.408 313.195 299.594 311.758 298.017Z" fill="#084C94"/>
<path d="M281.748 470.158C281.192 468.813 281.053 467.607 281.285 465.983C281.563 463.849 281.47 463.571 279.199 460.046C277.901 458.005 276.65 455.778 276.371 455.129C276.14 454.479 275.769 453.969 275.583 453.969C275.398 453.969 273.266 454.572 270.855 455.361C265.71 456.984 265.71 456.984 263.346 455.778L261.492 454.85L256.949 457.402C254.4 458.84 252.221 459.999 252.082 459.999C251.943 459.999 251.804 459.675 251.804 459.257C251.804 458.84 250.46 457.17 248.791 455.546C245.917 452.717 245.639 452.578 243.507 452.578C241.467 452.578 241.236 452.438 240.355 450.815C239.66 449.562 239.335 447.985 239.196 444.924C239.011 440.981 239.057 440.563 240.54 437.363C241.375 435.507 242.07 433.466 242.07 432.817C242.07 432.214 242.719 431.008 243.507 430.127C244.666 428.781 244.805 428.317 244.434 427.575C244.156 427.065 243.553 426.416 243.09 426.184C242.024 425.534 242.626 425.024 246.01 423.632C247.54 423.029 248.977 422.241 249.162 421.87C249.579 421.174 244.758 410.366 244.017 410.366C243.785 410.366 242.626 411.479 241.421 412.871C239.613 414.958 238.964 415.422 237.527 415.561C235.812 415.7 235.812 415.7 235.951 417.602C236.137 419.504 236.09 419.55 232.614 422.148C230.667 423.586 228.906 424.746 228.674 424.746C228.442 424.746 227.793 423.957 227.283 423.029C226.171 421.174 225.707 421.174 221.118 422.612C219.079 423.261 218.893 423.215 218.893 422.519C218.893 420.339 220.423 413.427 221.767 409.763C222.972 406.33 223.158 405.356 222.787 403.965C222.416 402.48 222.092 402.156 220.423 401.552L218.43 400.857L214.953 403.315C213.053 404.614 211.291 405.727 211.06 405.727C210.55 405.727 209.159 401.181 209.159 399.465C209.159 398.769 209.391 397.842 209.623 397.331C210.55 395.615 209.669 394.177 206.517 392.368L203.55 390.652L203.875 388.796C204.385 385.735 204.385 385.642 202.531 384.436C201.047 383.415 200.862 383.183 201.464 382.627C201.974 382.07 202.067 380.679 201.882 375.391L201.65 368.85L206.239 366.484L210.781 364.165L210.689 361.382L210.596 358.552L213.47 357.671L216.344 356.79L216.576 353.311L216.807 349.832L218.43 349.646C221.628 349.368 221.582 349.275 215.973 342.039C213.006 338.235 212.404 337.168 211.987 334.895C211.338 331.463 211.291 331.787 212.914 329.886C214.536 328.076 214.49 327.566 212.404 324.087C211.709 322.881 210.874 321.165 210.503 320.191C209.947 318.706 209.993 318.428 210.689 317.686C211.338 317.083 212.172 316.897 214.397 317.036C215.973 317.083 218.198 316.851 219.357 316.526C221.118 315.97 221.628 315.552 222.602 313.697L223.76 311.563H226.449H229.184L228.859 309.104L228.581 306.692L230.852 304.93C233.124 303.213 233.216 303.167 235.349 303.677C238.686 304.419 240.957 305.811 242.487 307.991L243.878 310.032L242.533 311.888L241.189 313.697L242.348 315.413C243.646 317.315 244.573 317.5 246.242 316.202C247.262 315.413 248.142 315.274 253.102 315.274C257.691 315.274 258.757 315.367 258.757 315.923C258.757 316.294 257.737 316.897 256.347 317.361C253.148 318.428 252.685 318.846 252.824 320.515C252.963 321.814 252.778 322 250.97 322.649C249.857 323.067 248.698 323.809 248.42 324.319C248.142 324.829 246.01 327.52 243.692 330.349C241.375 333.133 239.242 335.777 238.872 336.24C238.362 336.936 238.408 337.447 239.335 339.627C240.494 342.41 240.448 343.013 238.593 347.791L237.759 349.924L239.474 352.708L241.236 355.537L239.799 361.289L238.362 367.087L239.103 373.582L239.845 380.122L237.713 390.141C236.508 395.661 235.673 400.393 235.812 400.625C235.998 400.857 237.017 401.089 238.084 401.089C239.706 401.089 240.726 400.671 243.136 399.001C244.851 397.842 246.427 396.914 246.659 396.914C246.937 396.914 248.003 397.934 249.116 399.233C251.433 401.924 252.87 402.295 252.824 400.161C252.824 400.022 252.685 399.465 252.546 398.908C252.314 398.12 252.499 397.749 253.241 397.331C254.493 396.682 255.142 397.285 255.93 400.022C256.3 401.413 256.718 402.016 257.32 402.016C258.247 402.016 262.465 397.749 262.465 396.867C262.465 396.543 261.816 395.151 260.982 393.76L259.545 391.208L261.492 389.353C263.346 387.637 263.578 387.544 265.617 387.822C266.823 387.961 269.743 388.24 272.107 388.379C276.696 388.657 276.464 388.518 276.928 391.533C277.02 392.09 278.504 393.203 281.007 394.595L284.947 396.775L285.735 400.439C286.94 406.238 289.675 411.618 294.032 416.674C296.118 419.087 299.27 423.493 301.031 426.508L304.322 431.889L304.647 438.383C304.832 442.001 304.786 445.109 304.6 445.341C304.091 445.898 302.793 444.785 302.793 443.718C302.793 442.929 298.111 439.125 297.184 439.125C296.442 439.125 292.131 445.388 292.271 446.269C292.317 446.826 293.151 447.661 294.171 448.217C295.608 449.006 296.257 449.145 297.416 448.82C298.204 448.588 298.899 448.403 298.992 448.403C299.038 448.403 299.084 449.655 299.084 451.186V453.969H297.647C296.906 453.969 295.84 454.155 295.33 454.433C294.449 454.943 294.449 455.036 295.886 457.541L297.369 460.139L295.469 461.901C293.568 463.664 293.522 463.71 289.86 463.71H286.152L284.483 466.262C282.768 468.998 282.583 469.694 283.371 470.529C283.927 471.039 283.602 472.06 282.907 472.06C282.675 472.06 282.166 471.178 281.748 470.158Z" fill="#084C94"/>
<path d="M243.368 314.579C242.951 313.605 243.044 313.187 244.156 311.749L245.408 310.079L243.739 307.574C241.977 304.93 239.289 303.168 236.044 302.518C235.164 302.333 234.097 302.101 233.68 302.008C233.263 301.869 231.965 302.518 230.806 303.446C229.601 304.374 228.396 304.977 228.164 304.838C227.932 304.652 227.701 303.817 227.701 302.889C227.701 301.498 227.237 300.756 224.502 297.926C220.423 293.705 218.894 290.736 218.894 287.025V284.288L221.953 282.711C223.668 281.876 225.151 280.902 225.29 280.577C225.383 280.206 224.641 279.047 223.575 277.933L221.628 275.985L224.317 273.573C226.264 271.857 227.284 271.254 227.932 271.439C228.442 271.579 229.416 271.81 230.111 271.95L231.363 272.228L231.084 269.862C230.853 267.636 230.899 267.404 232.66 265.316C233.68 264.064 234.654 262.812 234.839 262.487C235.024 262.162 234.051 260.771 232.336 258.869L229.462 255.807L229.787 253.581C230.065 251.4 230.065 251.354 228.396 250.334C227.052 249.499 226.774 249.081 227.005 248.293C227.84 245.602 227.793 245.37 226.356 244.303C225.568 243.747 224.919 243.144 224.919 242.912C224.919 242.726 226.31 241.659 227.979 240.546C229.648 239.433 231.224 238.088 231.455 237.485C231.733 236.696 232.197 236.418 233.217 236.418C234.885 236.418 234.885 236.418 235.72 232.753C236.369 230.063 236.322 229.831 235.488 228.764C234.654 227.651 234.654 227.651 235.534 227.14C236.183 226.816 236.554 226.862 237.064 227.465C237.388 227.883 238.455 228.764 239.428 229.46L241.143 230.759L245.361 229.181C247.957 228.207 250.275 227.001 251.341 226.027C252.685 224.821 253.612 224.404 255.605 224.125C257.228 223.94 258.757 223.383 259.731 222.687C262.188 220.878 263.161 221.157 265.154 224.357C266.637 226.769 267.055 227.14 268.306 227.14C270.021 227.14 270.346 227.511 271.458 230.434C271.875 231.593 272.478 232.892 272.802 233.356C273.405 234.145 273.498 234.145 274.935 233.403C276.325 232.66 276.511 232.707 277.901 233.588C278.736 234.098 280.636 235.768 282.166 237.299C283.695 238.83 285.179 240.129 285.457 240.129C285.874 240.129 288.423 251.122 288.423 252.838C288.423 253.256 286.245 253.117 284.854 252.607C284.159 252.328 282.676 251.076 281.563 249.823C280.451 248.571 279.153 247.55 278.643 247.55C278.04 247.55 276.65 249.22 274.147 252.978C272.153 255.993 270.392 258.776 270.253 259.193C269.928 259.982 270.438 261.884 274.286 274.408C276.789 282.526 278.272 285.726 280.312 287.396C280.961 287.953 281.239 287.907 282.398 287.025C283.881 285.958 284.715 285.773 284.715 286.515C284.715 286.793 283.695 288.185 282.49 289.669C280.543 292.035 280.126 292.963 278.967 297.416C277.391 303.4 277.067 304.142 276.001 304.142C274.378 304.095 274.1 303.539 274.657 301.451C275.259 299.271 274.842 298.575 272.895 298.575C271.69 298.575 261.539 304.513 261.214 305.441C261.029 305.812 261.307 307.203 261.77 308.549C262.234 309.894 262.466 311.193 262.28 311.471C262.141 311.749 261.26 312.167 260.38 312.491C259.499 312.77 258.757 313.187 258.757 313.419C258.757 313.697 256.254 313.883 253.102 313.883C248.189 313.883 247.215 314.022 246.01 314.811C244.249 315.97 244.017 315.97 243.368 314.579Z" fill="#084C94"/>
<path d="M238.687 227.511C236.648 225.795 236.37 225.656 235.257 226.166C234.145 226.676 233.913 226.537 232.244 224.96L230.483 223.197L226.774 223.336L223.02 223.476L221.212 221.481C219.451 219.579 219.358 219.301 219.358 216.518C219.358 213.827 219.497 213.41 220.98 211.601C222.185 210.163 222.603 209.189 222.603 207.936C222.603 206.73 223.02 205.71 224.086 204.411C225.523 202.602 225.523 202.602 224.642 201.628C222.973 199.772 219.59 197.638 216.577 196.571C214.908 195.968 213.378 195.319 213.147 195.087C212.498 194.53 213.888 191.886 217.689 186.598C221.676 181.125 222.139 180.29 222.139 178.759C222.139 178.11 222.417 177.414 222.695 177.228C223.02 177.043 225.569 176.764 228.35 176.579C231.549 176.347 233.588 176.022 233.959 175.605C234.747 174.77 235.164 168.925 234.469 168.09C234.145 167.626 232.8 167.348 230.483 167.255C227.701 167.116 226.728 166.884 225.523 165.956C224.689 165.353 223.993 164.518 223.993 164.194C223.993 163.544 229.092 154.221 232.012 149.582C233.449 147.263 238.826 142.253 245.362 137.197C251.805 132.187 267.751 121.426 268.724 121.426C269.234 121.426 270.81 121.843 272.201 122.353C273.591 122.863 275.167 123.281 275.677 123.235C276.929 123.235 281.657 119.895 281.888 118.874C282.12 117.715 281.286 117.344 277.439 116.972C274.008 116.648 273.313 116.137 274.75 114.931C275.121 114.607 275.863 112.983 276.372 111.267C277.299 108.205 277.299 108.159 281.1 105.701C283.14 104.309 285.179 103.103 285.597 103.01C286.014 102.917 287.08 103.474 287.961 104.216L289.583 105.561L288.749 108.716C287.358 114.143 287.126 113.911 295.609 115.395C298.622 115.906 301.403 116.555 301.728 116.833C303.257 118.132 301.728 121.426 299.595 121.426C297.973 121.426 297.37 121.936 294.914 125.276C293.06 127.827 292.874 128.012 291.391 127.78C290.093 127.549 289.49 127.78 287.544 129.358C285.133 131.259 284.948 131.584 284.484 134.646C283.882 138.357 284.16 138.125 279.942 137.8C275.26 137.475 274.796 137.8 275.26 141.325C275.445 142.578 275.816 143.969 276.094 144.34C276.419 144.804 278.319 145.315 281.193 145.732C283.696 146.103 285.968 146.567 286.153 146.799C286.385 147.031 286.987 148.84 287.497 150.881L288.424 154.545L286.385 157.561C283.835 161.225 284.067 161.782 288.146 161.782C290.649 161.782 291.298 161.55 293.384 160.158C296.073 158.349 296.351 158.303 300.013 159.045C302.284 159.509 302.886 159.462 305.39 158.581C309.098 157.282 310.257 157.329 311.786 158.906L313.084 160.251L309.608 163.962L306.131 167.673L307.939 175.002C308.959 179.037 309.7 182.609 309.561 182.934C309.376 183.398 308.356 183.583 306.038 183.583H302.794V185.671C302.794 186.877 302.284 188.964 301.635 190.541C300.986 192.026 300.476 193.974 300.476 194.809C300.476 195.644 300.198 197.36 299.873 198.659L299.271 200.978L296.026 201.21C293.152 201.396 292.55 201.628 291.02 202.926C290.093 203.761 289.073 204.457 288.749 204.457C288.471 204.411 287.404 202.973 286.431 201.21C284.484 197.499 284.392 197.499 279.432 198.659C275.399 199.587 275.167 199.679 274.611 200.932C274.286 201.72 273.591 202.138 272.34 202.323C270.764 202.602 270.393 202.973 268.77 205.663C267.797 207.333 265.85 209.652 264.506 210.812C260.705 214.059 259.685 215.775 259.685 218.93C259.685 222.084 258.897 222.826 255.004 223.29C253.057 223.522 252.176 223.893 250.693 225.285C249.07 226.723 242.998 229.459 241.376 229.459C241.144 229.459 239.892 228.578 238.687 227.511Z" fill="#084C94"/>
<path d="M222 131.166C220.471 129.497 220.285 129.033 220.285 126.76C220.285 124.58 220.424 124.208 221.351 123.93C221.908 123.745 222.927 123.234 223.623 122.724C224.272 122.26 225.06 121.889 225.338 121.889C226.543 121.889 225.43 132.465 224.179 132.883C223.901 132.976 222.927 132.187 222 131.166Z" fill="#084C94"/>
<path d="M284.39 525.034C283.973 524.755 284.297 523.735 285.641 521.184C286.661 519.282 287.495 517.473 287.495 517.148C287.495 516.823 286.151 514.411 284.482 511.767C282.397 508.381 280.728 506.386 278.92 504.948C277.529 503.835 276.371 502.583 276.371 502.165C276.371 501.237 277.761 497.016 278.317 496.32C278.549 496.042 280.125 495.578 281.84 495.254C285.549 494.65 287.495 493.955 287.495 493.213C287.495 492.934 287.217 491.867 286.846 490.847C286.476 489.826 286.058 486.765 285.873 484.121C285.641 480.456 285.27 478.601 284.436 476.745C283.277 474.148 283.045 472.988 283.694 472.988C283.926 472.988 284.436 472.71 284.9 472.339C285.734 471.782 285.734 471.643 284.992 470.576C284.297 469.463 284.297 469.324 285.456 467.236L286.661 465.102H290.23H293.799L296.349 462.829L298.852 460.556L297.6 457.959L296.349 455.408L298.064 455.268C299.408 455.129 299.825 454.897 300.057 453.97C300.567 452.161 300.521 447.568 300.011 447.244C299.779 447.058 298.806 447.151 297.878 447.429C296.581 447.8 295.885 447.707 294.866 447.197C294.124 446.826 293.521 446.362 293.521 446.13C293.521 445.945 294.356 444.553 295.422 443.115L297.322 440.471L299.455 442.002C300.984 443.115 301.679 443.95 301.772 444.832C301.911 445.759 302.328 446.269 303.441 446.733C304.692 447.244 305.017 447.661 305.249 449.145C305.434 450.12 305.99 452.717 306.5 454.897C307.427 458.469 307.52 460.51 307.752 478.091L307.984 497.341L305.017 503.835L302.05 510.283L296.349 511.999C293.243 512.973 290.416 513.947 290.091 514.226C289.72 514.504 289.396 516.127 289.257 517.936C289.118 519.699 288.608 522.065 288.144 523.271C287.449 524.987 287.032 525.405 286.105 525.405C285.456 525.358 284.714 525.219 284.39 525.034Z" fill="#084C94"/>
<path d="M144.729 423.725C141.484 421.267 141.159 420.803 139.676 416.814C138.795 414.587 137.127 412.175 130.869 404.336L129.617 402.759L126.697 404.011L123.777 405.263L120.857 402.434L117.89 399.604L114.506 399.883C112.652 400.068 110.798 400.3 110.381 400.439C110.01 400.532 108.48 403.083 107.043 406.052C105.05 410.18 104.308 412.221 104.123 414.402C103.891 416.396 103.52 417.556 102.918 418.112C102.037 418.901 101.944 418.855 100.739 417.324C99.8585 416.257 99.2096 415.84 98.6997 416.072C97.2627 416.582 90.7269 421.128 89.0582 422.751L87.3895 424.328L85.9525 423.076C84.1911 421.638 84.1448 421.267 85.2109 410.737C85.6281 406.655 85.8135 403.037 85.7208 402.712C85.5817 402.387 84.7937 401.97 84.0057 401.784C82.9859 401.553 82.0588 400.718 80.7146 398.909C79.0459 396.636 78.8605 396.125 79.0922 394.548C79.2313 393.62 79.5094 392.461 79.6485 392.09C79.8339 391.579 79.324 390.976 77.7943 390.049C76.4965 389.26 75.7084 388.425 75.6621 387.915C75.6621 386.941 73.9007 383.694 72.0929 381.235C71.3049 380.122 70.4705 379.658 69.1263 379.426C67.4112 379.148 67.3185 379.102 68.0602 378.313C68.6628 377.617 68.7091 377.2 68.2919 375.901C67.3185 373.025 66.8086 372.839 59.902 372.654L53.6443 372.561L53.5052 370.335C53.4125 368.897 53.6906 367.459 54.3396 366.021C54.8495 364.815 55.2666 363.423 55.2666 362.959C55.2666 362.449 54.2932 360.686 53.1344 359.063C51.4193 356.651 50.9558 355.537 50.6313 353.125C50.1214 349.739 49.797 348.672 49.1944 348.672C48.1282 348.672 48.36 347.188 49.7506 345.286L51.2339 343.152L49.5188 334.431L47.8501 325.711L45.4861 323.345L43.1221 320.933L45.7642 318.289C48.2673 315.784 48.5454 315.645 50.2141 315.83C52.6709 316.202 53.1808 315.367 53.8297 310.171C54.1542 307.713 54.525 305.394 54.6641 304.93C54.7568 304.466 56.2401 302.564 57.8624 300.755C59.4848 298.899 60.829 297.044 60.829 296.626C60.829 295.328 53.6906 284.984 51.5584 283.128C49.6579 281.505 49.4725 281.133 48.5454 276.866C47.9892 274.407 47.6184 272.042 47.7111 271.671C47.8965 270.928 50.724 268.887 51.5584 268.887C51.7901 268.887 52.4391 269.722 52.949 270.743C54.2005 273.201 55.2666 273.155 56.5645 270.511C57.8161 267.913 58.7895 267.31 63.5639 266.104C67.4576 265.177 68.2456 265.177 68.2456 266.29C68.2456 267.264 70.9804 269.351 72.232 269.351C72.8345 269.351 75.8011 268.331 78.8141 267.078C81.7807 265.826 84.701 264.666 85.2572 264.527C86.7869 264.017 86.8796 263.043 85.628 260.213C84.2838 257.244 84.2375 256.409 85.1182 255.157C85.6744 254.415 86.277 254.322 89.2899 254.415C92.6737 254.554 92.9055 254.508 94.4815 253.116C95.3622 252.374 96.2893 251.724 96.4747 251.724C96.7065 251.724 99.0242 253.626 101.666 255.992C105.328 259.332 106.209 260.306 105.514 260.445C104.54 260.631 103.474 261.373 103.474 261.929C103.474 262.115 105.096 263.46 107.043 264.945C110.195 267.31 111.447 267.913 116.87 269.676C125.167 272.32 125.214 272.274 122.803 265.037C121.876 262.161 121.088 259.425 121.088 259.007C121.088 258.358 121.691 258.265 125.399 258.358L129.664 258.45L130.591 255.76C131.101 254.322 131.796 253.023 132.167 252.884C132.538 252.745 134.114 252.467 135.643 252.327C139.305 251.956 140.186 251.493 139.861 250.194C139.63 249.405 140.093 248.709 141.716 247.132C142.874 246.019 143.801 244.952 143.801 244.72C143.801 244.488 142.364 243.189 140.557 241.891C137.219 239.478 137.034 239.2 136.709 235.35C136.478 232.752 136.663 232.474 140.464 230.34C148.808 225.609 154.231 222.223 157.012 219.903C159.84 217.584 160.35 217.352 162.065 217.491C164.104 217.63 164.058 217.538 163.409 220.692C163.27 221.434 163.409 221.991 163.826 222.13C164.475 222.362 179.401 219.208 180.328 218.605C180.652 218.419 182.645 214.754 184.824 210.487L188.764 202.694L192.472 200.746C196.134 198.844 196.227 198.844 198.823 199.308C200.816 199.679 201.743 200.143 202.531 201.07C203.087 201.766 203.597 202.508 203.597 202.694C203.597 202.833 204.014 203.112 204.524 203.297C205.915 203.715 210.921 200.143 211.755 198.102C212.543 196.293 212.451 196.293 217.179 198.195C219.96 199.308 223.529 201.859 223.529 202.648C223.529 202.926 223.112 203.668 222.602 204.318C222.092 204.967 221.675 206.127 221.675 206.869C221.675 208.492 221.072 209.698 219.311 211.786C218.106 213.131 217.967 213.595 217.967 216.61C217.967 219.44 218.152 220.182 218.894 220.831C219.404 221.295 219.914 222.037 220.053 222.501C220.516 223.985 223.622 224.96 226.913 224.588L229.879 224.264L232.429 227.093L235.025 229.969L234.468 232.381C233.959 234.608 233.82 234.793 232.336 235.025C231.131 235.211 230.714 235.536 230.482 236.371C230.297 237.159 229.045 238.272 226.681 239.85C224.688 241.148 223.112 242.494 223.112 242.911C223.066 243.282 223.807 244.071 224.734 244.674C226.079 245.555 226.357 245.926 226.079 246.761C225.198 249.591 225.244 249.776 226.959 250.843C228.582 251.91 228.674 252.003 228.396 254.044C228.118 256.131 228.164 256.224 230.667 258.914C232.104 260.445 233.263 261.929 233.263 262.208C233.263 262.486 232.429 263.692 231.363 264.898C229.74 266.707 229.509 267.264 229.648 268.702C229.833 270.325 229.833 270.325 228.303 270.047C226.867 269.769 226.449 270.001 223.529 272.598C221.721 274.175 220.284 275.706 220.284 276.031C220.284 276.309 221.026 277.283 221.907 278.165C222.834 279.046 223.483 279.927 223.39 280.159C223.344 280.345 222.046 281.226 220.516 282.015L217.735 283.499L217.596 286.514C217.41 290.782 219.218 294.585 223.251 298.436L226.171 301.265L226.82 305.115C227.747 310.635 227.84 310.403 225.198 310.403C222.926 310.403 222.88 310.403 221.814 312.537C220.47 315.227 218.894 315.877 213.841 315.784C210.411 315.691 210.272 315.738 209.484 317.037C209.067 317.825 208.696 318.706 208.696 319.078C208.696 319.449 209.669 321.536 210.828 323.763L212.914 327.798L211.477 329.607L209.994 331.416L210.736 334.895C211.384 338.189 211.709 338.745 215.186 343.152C218.986 347.976 219.172 348.626 216.761 348.672C215.695 348.672 215.186 350.296 215.186 354.006V355.862L212.312 356.79L209.391 357.717L209.53 360.501L209.669 363.284L205.127 365.696L200.584 368.062L200.77 374.788C200.909 381.235 200.862 381.514 199.935 382.024C198.452 382.812 198.776 383.74 200.955 384.946C202.995 386.106 202.995 386.152 202.485 389.353L202.16 391.255L205.173 393.017C206.842 393.992 208.325 395.058 208.464 395.43C208.603 395.801 208.464 396.821 208.14 397.702C207.63 399.048 207.723 399.836 208.603 403.269C209.762 407.815 209.669 408.139 206.61 408.928C204.849 409.345 204.385 409.763 202.902 412.129C201.326 414.68 201.094 414.912 198.591 415.468C196.876 415.886 194.605 417.046 191.916 418.855C188.069 421.452 187.698 421.591 185.798 421.267C184.221 421.035 183.248 421.22 181.116 422.148C177.732 423.679 177.269 423.632 174.395 421.87L172.031 420.385L168.183 421.638C164.011 422.983 159.608 423.261 156.178 422.334C154.231 421.823 154.138 421.823 151.218 423.957C149.596 425.163 148.159 426.091 148.02 426.091C147.881 426.091 146.397 425.024 144.729 423.725Z" fill="#084C94"/>
<path d="M129.246 225.841C128.782 222.826 128.875 222.455 130.637 221.759C132.491 220.97 136.431 221.017 136.709 221.852C136.894 222.362 132.583 225.934 130.498 227.047C129.663 227.511 129.524 227.372 129.246 225.841Z" fill="#084C94"/>
<path d="M110.937 217.584C109.778 217.213 108.666 216.749 108.434 216.471C107.97 216.007 106.765 210.533 106.719 208.678C106.719 207.657 106.811 207.611 110.798 207.75L114.831 207.936L114.691 206.544C114.645 205.755 114.552 204.596 114.46 203.993C114.413 203.111 114.599 202.833 115.294 202.833C115.943 202.833 116.314 203.297 116.592 204.596C117.009 206.266 117.287 206.544 120.208 207.843L123.36 209.327L121.042 212.342C116.128 218.697 115.48 219.022 110.937 217.584Z" fill="#084C94"/>
<path d="M121.32 205.941C117.751 203.993 117.936 201.488 121.691 200.885C123.174 200.653 123.313 200.746 123.823 202.137C124.379 203.854 124.518 207.24 124.008 207.194C123.777 207.194 122.618 206.637 121.32 205.941Z" fill="#084C94"/>
<path d="M129.061 199.262C127.809 197.963 128.551 197.221 133.372 194.808C139.629 191.701 139.861 191.701 139.444 194.716C139.259 195.968 139.027 197.313 138.888 197.638C138.749 198.009 137.034 198.612 135.087 199.03C130.822 199.957 129.803 200.004 129.061 199.262Z" fill="#084C94"/>
<path d="M330.373 439.729C329.631 439.312 328.612 438.662 328.102 438.245C326.34 436.714 321.844 430.406 319.712 426.463C317.811 422.937 317.301 422.288 315.586 421.546C313.964 420.85 312.063 418.809 305.296 410.552L296.999 400.486L293.244 398.724C288.562 396.59 286.337 394.595 283.371 389.957C280.868 386.06 280.543 384.715 281.795 383.37C282.397 382.674 282.49 382.117 282.119 380.308C281.702 378.082 281.517 377.896 277.994 376.366C276.418 375.716 276.186 374.742 277.438 374C278.133 373.536 278.689 373.953 281.239 376.597C282.861 378.314 285.874 381.19 287.96 382.999C290.324 385.086 291.946 386.942 292.41 388.009C293.012 389.586 293.893 390.189 301.541 394.41C315.957 402.435 320.175 404.847 320.592 405.264C320.871 405.496 319.804 406.238 317.95 407.073C316.235 407.862 314.706 408.79 314.566 409.161C314.427 409.532 315.401 412.315 316.699 415.33C318.043 418.345 319.619 421.963 320.268 423.401C321.612 426.463 321.983 426.648 331.624 429.849C337.604 431.797 340.571 433.56 337.743 433.514C337.001 433.514 335.24 433.328 333.849 433.096C331.995 432.818 331.115 432.864 330.697 433.282C330.048 433.885 330.002 433.745 332.273 438.987C333.061 440.75 332.598 440.935 330.373 439.729Z" fill="#084C94"/>
<path d="M67.5502 523.363L63.3784 522.343L61.9415 518.261C61.1071 516.034 60.3655 514.132 60.2728 513.993C59.9019 513.669 40.8044 509.54 39.1357 509.447C36.9571 509.308 36.1227 508.056 36.4008 505.458C36.5862 504.02 36.9571 503.139 37.7451 502.582C38.9966 501.608 38.9039 501.701 41.1752 499.057C43.2611 496.645 44.6981 496.552 45.0689 498.732C45.3007 499.985 45.8569 500.402 51.0948 503C55.0812 504.948 57.4452 505.876 58.6968 505.876C59.9947 505.876 61.3389 506.432 63.193 507.638C65.6034 509.169 65.8815 509.54 65.7888 510.793C65.6961 512.045 65.8352 512.184 67.3185 512.323C68.3846 512.416 69.2653 512.834 69.9606 513.669L70.9804 514.921L73.1126 513.854C75.8011 512.509 76.5891 511.674 76.5891 510.236C76.5891 509.447 77.5625 507.963 79.5557 505.737C81.1781 503.927 82.7541 501.655 83.0322 500.773C83.4958 499.382 87.065 494.929 92.8591 488.62C93.369 488.063 93.8325 486.254 94.157 483.517C95.2231 474.24 95.2695 473.127 94.5278 471.967C94.157 471.364 93.2299 469.045 92.5346 466.818C91.2367 462.783 91.2368 462.736 91.9784 459.953C92.8128 456.845 92.9982 457.263 89.7071 454.572C88.1311 453.32 88.78 451.836 91.4685 450.444C93.0909 449.609 93.7399 449.006 93.9716 447.986C94.2497 446.733 94.3888 446.64 97.5871 446.362C101.017 446.084 102.083 445.434 102.083 443.672C102.083 442.697 102.547 442.651 105.004 443.3C106.487 443.718 106.95 443.672 107.599 443.069C108.712 442.094 109.268 442.187 109.871 443.532C110.473 444.831 110.52 444.831 114.413 444.182C116.777 443.764 117.751 443.3 119.42 441.816C121.135 440.332 121.552 439.636 121.83 437.827C122.062 436.157 122.525 435.276 123.823 434.116C126.28 431.843 127.624 432.168 125.724 434.58C124.379 436.343 124.565 438.198 126.558 442.002C129.664 447.985 131.564 450.583 133.001 450.908C133.696 451.047 135.411 451.836 136.756 452.578C139.027 453.877 139.166 454.109 139.166 455.778C139.166 457.309 138.981 457.634 137.775 458.144C136.153 458.794 133.465 461.855 129.849 467.143C128.458 469.138 127.114 471.132 126.79 471.55C125.816 472.849 127.114 476.328 128.876 477.116C131.471 478.276 131.24 480.038 127.856 484.074C126.465 485.79 124.75 487.136 122.618 488.249C119.698 489.78 119.466 490.058 119.095 491.821C118.817 493.259 118.261 494.094 116.916 495.207C115.897 495.995 114.645 497.526 114.135 498.5C113.255 500.217 113.069 500.356 111.215 500.356C109.732 500.356 108.758 500.68 107.275 501.747C106.023 502.721 105.05 503.093 104.447 502.907C103.242 502.536 100.229 504.02 100.229 505.041C100.229 505.505 100.461 506.386 100.739 506.989C101.203 507.963 101.11 508.381 100.276 509.54C98.8387 511.581 99.0241 512.695 100.971 513.715L102.64 514.55L101.017 515.663C99.8121 516.498 99.3022 517.194 99.1168 518.539C98.7924 520.58 98.5142 520.627 93.6008 519.513C91.0977 518.957 89.1509 518.864 85.7207 519.049L81.1317 519.374L77.5162 521.925C75.3839 523.41 73.4371 524.43 72.8345 524.43C72.2319 524.384 69.8679 523.92 67.5502 523.363Z" fill="#084C94"/>
<path d="M102.131 522.482C100.508 521.183 100.276 520.765 100.369 519.374C100.462 518.075 100.833 517.518 102.409 516.359C103.475 515.57 104.355 514.689 104.355 514.318C104.402 513.993 103.567 513.39 102.548 512.926C100.415 512.045 100.323 511.627 101.667 509.865C102.548 508.751 102.64 508.427 102.177 506.896C101.713 505.458 101.76 505.133 102.455 504.623C102.919 504.252 103.799 504.113 104.587 504.252C105.607 504.437 106.302 504.205 107.739 503.092C108.991 502.072 110.242 501.561 111.957 501.329C114.09 501.051 114.461 500.866 115.063 499.52C115.48 498.685 116.732 497.108 117.937 495.949C119.374 494.557 120.162 493.397 120.347 492.238C120.625 490.753 120.95 490.429 123.546 489.269C125.91 488.156 126.883 487.321 129.108 484.538C131.611 481.383 131.797 480.966 131.658 479.018C131.518 477.162 131.333 476.837 130.035 476.234C127.903 475.353 127.115 472.848 128.413 471.41C128.923 470.854 130.128 469.184 131.148 467.653C134.022 463.107 136.988 459.628 138.24 459.303C140.094 458.793 140.557 458.144 140.557 455.964C140.557 454.386 140.279 453.691 139.445 452.856C138.101 451.65 134.485 449.794 133.419 449.794C132.26 449.794 126.42 440.192 126.095 437.734C125.956 436.713 126.188 436.574 129.015 436.064C134.485 435.043 136.2 433.605 135.69 430.405C135.088 426.694 135.041 426.647 133.373 426.323C131.24 425.905 130.36 424.282 130.36 420.617C130.36 417.37 130.452 417.324 134.902 417.324H138.008L138.935 419.689C139.723 421.73 140.465 422.612 143.57 425.024C145.61 426.647 148.484 428.596 149.921 429.431C152.424 430.776 152.563 430.961 152.47 432.492C152.377 433.884 152.609 434.208 154.093 435.09L155.808 436.064L156.92 435.043C157.523 434.487 158.125 434.023 158.311 434.023C158.45 434.023 159.238 434.951 160.072 436.11C160.906 437.223 161.834 438.198 162.112 438.198C162.436 438.198 163.224 437.734 163.919 437.224C164.615 436.667 165.264 436.296 165.356 436.389C165.403 436.481 165.913 438.058 166.469 439.868C167.025 441.769 167.952 443.671 168.601 444.321L169.76 445.48L168.787 446.686C168.277 447.382 167.906 448.217 167.999 448.542C168.091 448.913 169.482 450.258 171.104 451.603L174.024 454.062L171.429 456.659C169.528 458.608 168.555 460.092 167.72 462.411C166.376 465.89 166.469 466.725 168.277 467.143C168.972 467.328 170.455 468.488 171.568 469.74L173.607 472.06L172.356 474.843C171.151 477.533 171.104 477.858 171.243 484.538C171.382 491.078 171.429 491.496 172.495 492.655C173.793 494 173.422 494.743 171.104 495.717C170.084 496.134 169.389 496.969 168.601 498.778C167.906 500.355 167.118 501.422 166.423 501.654C164.058 502.582 161.185 502.675 158.867 501.979C155.344 500.912 154.742 501.051 153.305 503.139C151.868 505.226 151.636 505.272 148.113 504.252C145.054 503.37 141.299 503.556 140.187 504.716C139.769 505.133 138.379 507.267 137.081 509.493C134.856 513.344 134.485 513.715 128.923 517.797L123.129 522.111L115.388 523.038C104.912 524.337 104.448 524.337 102.131 522.482Z" fill="#084C94"/>
<path d="M70.9341 512.463C70.7486 511.86 70.0997 511.489 68.8482 511.257C67.2258 510.978 67.0404 510.793 67.1795 509.911C67.5039 508.381 61.6171 504.531 59.0213 504.531C57.677 504.531 55.5911 503.742 51.8365 501.887C47.0621 499.567 46.4595 499.103 46.1814 497.851C45.5788 494.929 43.3075 494.882 40.5263 497.758C38.5331 499.799 38.4868 499.846 37.3743 499.103C36.4472 498.5 35.9837 498.454 35.0566 498.871C33.9905 499.382 33.3879 499.15 29.1698 496.784C25.137 494.558 24.0709 494.14 21.985 494.094C19.621 494.094 19.4356 493.955 17.4887 491.774C16.3763 490.476 15.4492 489.316 15.4028 489.13C15.4028 488.991 16.469 488.156 17.7205 487.368C19.0184 486.533 20.0382 485.837 20.0845 485.791C20.0845 485.744 20.4554 483.518 20.9189 480.874C21.6605 476.606 21.6605 475.771 21.1507 474.194C20.409 472.153 20.1772 472.617 24.3954 467.653L26.2031 465.52L24.7199 461.716C23.9319 459.582 23.2829 457.588 23.2829 457.263C23.2829 456.985 23.8855 455.5 24.6735 453.969L26.0641 451.233L28.7062 450.954C32.878 450.49 33.2488 450.351 33.9441 449.099C34.315 448.449 34.7322 447.939 34.9176 448.032C35.103 448.078 36.1228 449.284 37.1889 450.63C38.8576 452.763 39.2748 453.042 40.5727 452.949C42.056 452.81 42.056 452.763 42.1023 450.212C42.1023 447.8 42.3341 447.29 45.6715 442.187L49.2407 436.806L48.5454 435.09C47.572 432.817 47.6184 432.678 49.4725 432.353C50.8167 432.121 51.512 432.353 53.9688 433.884C56.8427 435.693 60.041 436.806 61.1999 436.435C61.478 436.343 61.7561 435.693 61.7561 434.997C61.7561 434.348 62.1733 432.864 62.6832 431.75C63.9347 428.967 63.8884 428.642 61.7561 427.251C59.7166 425.906 59.6239 425.535 60.5973 423.818C60.9681 423.169 61.2926 421.545 61.2926 420.247C61.2926 417.927 61.2462 417.834 59.7629 417.324C58.8822 417.046 57.6307 416.211 56.9354 415.515C55.7766 414.263 55.6838 414.031 56.1474 412.361C56.4255 411.387 56.6573 409.856 56.6573 409.021C56.6573 407.815 57.1672 406.841 58.6968 405.078C60.6437 402.759 60.7364 402.481 61.5707 397.424L62.4051 392.183L60.6437 390.698L58.8822 389.26L59.2531 384.297L59.5775 379.334L62.7296 377.2C65.5571 375.344 65.9279 375.205 66.3451 375.901C66.7159 376.551 66.4842 377.061 65.3253 378.22C63.5639 380.076 63.8884 380.493 67.5039 380.957L70.2388 381.375L72.0002 384.251C72.9736 385.828 73.808 387.73 73.9007 388.425C73.9934 389.307 74.6423 390.095 75.9866 390.977C77.748 392.183 77.8871 392.415 77.5162 393.482C77.2381 394.131 77.0527 395.059 77.0527 395.523C77.0527 396.821 81.2245 402.944 82.1052 402.944C84.0984 402.944 84.1448 403.223 83.3104 413.149L82.476 422.566L84.2838 424.097C87.0187 426.462 87.5285 426.462 89.7535 424.375C91.5613 422.659 98.0044 418.252 98.746 418.252C98.9314 418.252 99.6731 418.948 100.368 419.875C101.064 420.757 101.852 421.499 102.084 421.499C102.315 421.499 103.242 420.525 104.169 419.319C105.514 417.556 105.792 416.768 105.792 414.958C105.792 413.242 106.348 411.526 108.295 407.444C110.752 402.202 110.798 402.156 112.559 401.831C116.824 401.135 117.426 401.321 120.393 404.336C121.923 405.867 123.36 407.119 123.638 407.073C123.87 407.073 124.936 406.655 125.955 406.191C126.975 405.681 128.18 405.264 128.598 405.264C129.386 405.264 136.431 413.892 136.756 415.237C136.848 415.654 135.968 415.933 133.372 416.164C129.293 416.536 128.968 416.86 128.968 420.757C128.968 424.236 130.266 426.88 132.213 427.297C133.836 427.622 134.67 429.153 134.438 431.426C134.253 433.142 132.491 434.255 129.247 434.719L126.975 435.044L127.763 433.977C128.783 432.493 128.737 432.307 127.161 431.472C125.863 430.823 125.77 430.823 123.452 432.678C121.459 434.348 121.088 434.905 120.81 436.667C120.625 438.013 120.022 439.311 119.095 440.332C117.334 442.373 116.777 442.651 113.625 443.069C111.03 443.393 111.03 443.393 110.52 441.955C109.917 440.239 109.407 440.146 107.6 441.491C106.302 442.373 106.116 442.419 104.216 441.77C101.898 440.935 101.342 441.167 100.878 443.069C100.461 444.878 99.9976 445.11 96.8919 445.156C93.5545 445.156 92.8129 445.434 92.8129 446.78C92.8129 448.078 92.3493 448.542 89.7999 449.934C88.4093 450.722 87.8994 451.325 87.6676 452.531C87.2968 454.433 87.5285 455.222 88.5947 455.547C89.0582 455.686 89.8462 456.242 90.3561 456.706C91.2832 457.588 91.3295 457.727 90.6342 460.371C89.9389 463.154 89.9389 463.2 91.4222 467.7C92.2566 470.251 93.091 472.478 93.3227 472.71C93.879 473.313 93.8326 477.58 93.2764 481.291C92.9983 482.961 92.6737 485.002 92.5347 485.791C92.3956 486.811 90.866 488.898 87.4822 492.748C84.5156 496.088 82.4297 498.918 82.1052 499.938C81.8271 500.866 80.1584 503.232 78.397 505.18C76.0793 507.778 75.1986 509.076 75.1986 510.004C75.1986 511.025 74.8277 511.489 73.4835 512.184C72.5101 512.695 71.583 513.158 71.444 513.205C71.2586 513.298 71.0268 512.973 70.9341 512.463Z" fill="#084C94"/>
<path d="M4.32407 225.841C4.32407 225.423 4.69489 222.455 5.15842 219.347C5.80737 214.986 6.22455 213.502 6.8735 213.038C8.17139 212.064 8.77397 212.203 9.46927 213.595C10.0255 214.615 10.3963 214.801 11.7406 214.755C13.363 214.662 13.4093 214.708 14.7999 217.862C15.866 220.182 16.0978 221.156 15.727 221.481C15.1707 221.898 4.88029 226.676 4.50947 226.676C4.37041 226.676 4.27772 226.305 4.32407 225.841Z" fill="#084C94"/>
<path d="M-3.97406 217.352C-6.05996 216.888 -7.96043 216.378 -8.1922 216.285C-8.37761 216.146 -8.93387 214.847 -9.3974 213.456C-9.99999 211.415 -10.0927 210.301 -9.81456 208.446C-9.39738 206.219 -9.30468 206.034 -7.58961 205.477C-4.71571 204.55 -0.961106 204.642 0.475845 205.709C1.68103 206.591 1.72738 206.776 1.86644 211.925C1.95915 216.424 1.86646 217.213 1.21751 217.723C0.753982 218.048 0.290455 218.28 0.151395 218.28C0.0123348 218.234 -1.84181 217.862 -3.97406 217.352Z" fill="#084C94"/>
<path d="M40.0625 321.768C41.4531 322.139 42.7046 323.021 44.1879 324.551L46.3202 326.778L47.7571 334.432C48.5915 338.606 49.2404 342.317 49.2404 342.642C49.2404 342.92 48.4988 344.08 47.6181 345.147C45.6712 347.559 45.6249 348.208 47.34 349.461C48.4524 350.296 48.6842 350.852 48.9623 353.357C49.1941 355.769 49.6113 356.836 51.3263 359.434C52.4852 361.15 53.4122 362.866 53.4122 363.284C53.4122 363.701 52.9951 364.861 52.4388 365.928C51.6045 367.551 51.5117 368.386 51.7435 370.845C51.8826 372.515 52.1143 373.953 52.2998 374.138C52.6242 374.463 53.5049 374.509 59.809 374.556L64.3052 374.649L61.5704 376.458C60.0408 377.478 58.6502 378.591 58.4647 378.916C58.2793 379.241 58.0476 381.885 58.0012 384.807L57.9085 390.049L59.4381 391.348C60.8751 392.507 60.9678 392.739 60.6897 394.641C59.4382 403.037 59.5772 402.48 57.5377 404.614C55.7763 406.423 55.4981 406.934 55.22 409.531C55.0346 411.155 54.7101 412.871 54.5711 413.428C54.2002 414.68 56.6106 417.556 58.8356 418.484C60.736 419.272 60.8288 420.478 59.2064 423.54C58.5574 424.746 58.0476 425.906 58.0476 426.091C58.0476 426.323 59.021 427.065 60.1798 427.761C61.6631 428.642 62.2194 429.199 62.0803 429.756C61.9412 430.173 61.5704 431.24 61.2459 432.168C60.9678 433.049 60.6433 434.023 60.5506 434.348C60.3652 435.044 59.2064 435.044 57.6304 434.441C57.0278 434.162 55.3127 433.235 53.8294 432.353C51.6045 431.008 50.8628 430.776 49.5649 431.008C48.267 431.24 46.7374 431.565 46.4129 431.982C46.0884 432.4 46.0884 432.817 46.4129 433.467C47.9889 436.342 47.9889 436.389 44.327 441.909C41.2677 446.594 40.8968 447.429 40.8968 449.423C40.8968 452.439 40.1088 452.299 37.4203 448.867C36.2615 447.336 35.1027 446.084 34.8709 446.084C34.6855 446.084 33.8975 446.826 33.1558 447.754C31.8579 449.331 31.5798 449.47 28.5669 449.748L25.3685 450.026L23.6534 453.274C22.68 455.036 21.9383 456.845 21.892 457.216C21.892 457.587 22.5409 459.582 23.2826 461.577C24.8586 465.659 25.044 465.148 21.2894 469.462L19.0181 472.014L19.7134 474.101C20.3623 476.003 20.3623 476.652 19.7134 480.595L18.9717 484.955L16.515 486.672C15.1244 487.646 14.0119 488.713 14.0119 489.084C14.0119 489.455 15.2171 491.078 16.7004 492.702C18.1374 494.372 19.3426 495.856 19.3426 495.995C19.3426 496.181 17.0713 496.969 14.2437 497.804L9.14484 499.289L8.72768 501.237C8.44955 502.49 7.8933 503.464 7.198 503.927C6.59541 504.299 5.29753 506.015 4.32411 507.731C1.2648 512.926 -0.403938 514.132 -6.38351 515.385C-6.75434 515.478 -8.70118 515.292 -10.648 515.014C-13.6146 514.596 -14.4953 514.272 -15.5151 513.205L-16.813 511.906L-14.1709 509.494C-12.3167 507.824 -11.3897 506.525 -11.0652 505.319C-10.8334 504.391 -9.86 502.721 -8.97928 501.655C-8.05222 500.588 -7.31058 499.428 -7.31058 499.057C-7.31058 498.732 -8.74751 495.578 -10.5089 492.099C-12.224 488.574 -13.8464 484.863 -13.9854 483.796C-14.588 480.456 -14.9125 480.27 -18.8062 481.059C-23.766 482.126 -24.5077 482.033 -25.7128 480.27C-27.3352 477.858 -27.3815 477.441 -25.8519 476.003C-24.6931 474.89 -24.4613 474.287 -24.4613 472.617C-24.4613 470.947 -24.8321 470.019 -26.5008 467.653L-28.5404 464.731L-27.706 463.432C-27.1498 462.597 -26.918 461.669 -27.1034 460.742C-27.2888 459.536 -26.9644 458.84 -25.4347 456.892C-23.905 454.99 -23.5342 454.155 -23.5342 452.624C-23.5342 450.861 -23.6269 450.722 -25.2493 450.305C-31.4606 448.681 -30.9508 448.96 -30.9508 447.104C-30.9508 444.97 -30.7653 444.738 -28.0305 442.883C-25.6201 441.213 -25.5274 440.888 -26.5935 438.198C-27.2888 436.435 -27.4279 436.342 -29.3284 436.342C-31.2289 436.342 -31.4606 436.157 -33.7319 433.327C-36.4204 430.034 -36.4204 430.034 -42.9099 429.57C-48.1478 429.199 -49.0749 428.596 -47.6843 426.462C-46.8036 425.071 -46.8036 425.024 -47.8233 422.287C-48.5186 420.293 -48.6577 419.458 -48.2405 419.319C-47.4062 418.994 -40.4995 413.984 -40.1287 413.428C-39.5261 412.546 -39.7115 412.314 -42.7245 410.552C-44.9494 409.253 -45.9229 408.371 -46.5254 407.026C-47.4525 404.985 -47.3598 404.846 -43.2344 400.393C-40.4532 397.378 -40.3141 396.775 -41.4266 393.481C-42.1682 391.301 -42.1682 391.301 -40.8703 389.446C-38.599 386.292 -38.3673 385.642 -38.3673 381.978C-38.3673 377.756 -38.9235 376.875 -42.1683 376.04C-44.625 375.391 -44.3932 375.947 -44.625 370.01C-44.6713 368.572 -44.764 367.18 -44.8104 366.856C-44.8104 366.531 -45.552 365.928 -46.4327 365.603L-47.9624 364.954L-48.2869 360.222C-48.6113 356.233 -48.8431 355.166 -49.9556 353.311C-50.79 351.873 -51.4389 349.832 -51.8097 347.559C-52.2733 344.405 -52.2269 343.941 -51.3925 342.317C-50.5582 340.694 -48.6113 337.725 -48.1478 336.38C-47.6843 335.035 -47.8233 334.339 -49.3066 330.118L-51.0217 325.386L-52.6904 325.711C-55.9815 326.314 -56.0742 326.268 -58.1138 323.392C-59.2262 321.861 -60.107 320.469 -60.1533 320.284C-60.1533 320.098 -58.9018 319.078 -57.3721 317.964C-54.4519 315.831 -53.3857 314.068 -52.9222 310.45C-52.6441 308.687 -52.8295 308.316 -54.5446 306.229C-55.5643 304.93 -56.4451 303.677 -56.4451 303.445C-56.4451 303.167 -55.3789 301.868 -54.081 300.523L-51.717 298.065L-50.9754 299.085C-49.3994 301.312 -48.565 301.868 -46.8036 301.729L-45.0885 301.59L-44.9494 298.714C-44.8104 295.977 -44.8567 295.792 -47.0817 292.916C-48.2869 291.292 -49.4457 289.622 -49.6311 289.158C-49.9556 288.277 -49.1212 281.412 -48.6113 280.855C-48.4723 280.67 -44.764 280.206 -40.4532 279.788C-29.143 278.722 -28.6331 278.629 -28.3086 277.84C-28.1695 277.423 -28.5867 276.031 -29.2357 274.639L-30.4408 272.181L-28.494 269.305C-27.4279 267.682 -25.4811 265.177 -24.1368 263.739C-22.0509 261.512 -20.9384 260.816 -16.0713 258.636C-12.0386 256.827 -10.2772 255.807 -9.95272 255.018C-9.48919 254.09 -5.6882 251.725 -4.57572 251.725C-4.34396 251.725 -3.92679 252.328 -3.60231 253.07C-2.58254 255.575 -2.25806 255.575 2.84081 253.116L7.56885 250.797L7.42976 249.081C7.2907 247.503 7.38342 247.364 8.91307 246.947C11.6016 246.251 11.8333 245.787 11.1844 242.586L10.6282 239.803L12.8995 236.185C14.151 234.191 15.5879 232.289 16.0978 231.964C17.2103 231.129 19.1571 231.129 20.1769 231.871C20.8722 232.428 20.7795 232.66 19.0645 234.654C16.4223 237.762 16.7931 238.458 20.9186 238.041C23.9779 237.716 24.117 237.762 24.3951 238.783C24.5341 239.386 24.6732 240.314 24.6732 240.87C24.6732 241.705 25.4612 242.447 26.3419 242.447C26.4346 242.447 27.5471 241.473 28.845 240.36L31.209 238.273H35.3808H39.5526L42.5656 240.685C44.2806 242.03 45.7176 243.607 45.8566 244.256C46.0421 244.906 46.1811 247.55 46.2275 250.101V254.74L43.1682 259.378C41.4994 261.93 39.0427 265.965 37.6985 268.331C36.3542 270.743 34.361 274.176 33.2022 275.985C31.209 279.232 30.7455 280.623 31.5798 281.134C31.858 281.273 33.2022 281.273 34.6855 281.087C37.1886 280.809 37.5594 280.577 41.314 277.144C43.4926 275.15 45.4395 273.526 45.6249 273.526C45.9957 273.526 46.1348 273.897 47.2009 278.768C47.9426 281.969 48.2207 282.572 49.7967 283.824C50.8164 284.566 52.9951 287.349 54.7565 289.947C59.6236 297.23 59.4845 296.256 56.1934 299.966C53.0414 303.538 52.7169 304.327 52.2534 309.337C51.8362 313.743 51.6045 314.114 49.3331 313.929C47.6644 313.836 47.3863 314.022 44.2343 317.315" fill="#084C94"/>
<path d="M-23.5338 533.94C-24.0437 533.383 -23.951 533.059 -23.1166 532.177C-21.8187 530.786 -21.8651 530.322 -23.5338 527.678C-24.2754 526.425 -25.3879 524.199 -26.0368 522.715C-27.3347 519.653 -27.1493 519.375 -23.9046 519.375C-21.3088 519.375 -20.3817 518.586 -20.0109 516.081C-19.8255 515.107 -19.3156 513.948 -18.8521 513.484C-17.9714 512.741 -17.8787 512.788 -16.349 514.226C-14.9121 515.617 -14.4022 515.803 -10.5549 516.22C-2.76752 517.102 1.40428 515.154 5.06619 508.938C5.94691 507.407 7.38387 505.505 8.26458 504.67C9.238 503.789 9.84058 502.815 9.84058 502.073C9.84058 500.588 10.4432 500.171 13.5488 499.289C21.707 496.97 21.5216 497.063 21.2898 496.135C20.8727 494.465 23.3757 495.115 28.6137 497.991C33.0636 500.403 33.7589 500.681 34.9641 500.264C35.9375 499.892 36.4937 499.939 36.9572 500.356C37.5598 500.867 37.5135 501.052 36.5864 501.933C34.9641 503.464 34.5005 507.361 35.7984 509.123C36.3083 509.866 36.7255 510.654 36.7255 510.886C36.7255 511.118 35.2885 513.344 33.4807 515.896C31.7193 518.401 30.236 520.581 30.236 520.766C30.236 520.905 31.0704 523.132 32.0901 525.73C33.1099 528.327 33.9443 530.647 33.9443 530.925C33.9443 531.203 32.9245 531.945 31.6266 532.595C29.4017 533.708 29.0308 533.754 20.3164 533.754H11.3239L10.7676 531.389C10.3968 529.904 9.84059 528.838 9.19165 528.466C8.68176 528.142 5.29795 527.4 1.72875 526.797L-4.76071 525.776L-13.7069 530.229C-18.6203 532.688 -22.6994 534.682 -22.7921 534.682C-22.8848 534.682 -23.2093 534.358 -23.5338 533.94Z" fill="#084C94"/>
</g>
</svg>
