<svg width="40" height="40" viewBox="0 0 40 40" fill="none" xmlns="http://www.w3.org/2000/svg">
<path d="M0.688044 4.00239C-0.553713 6.61407 -0.12067 9.82269 2.04089 11.9842C4.20244 14.1458 7.41105 14.5788 10.0227 13.3371L26.663 29.9774C25.421 32.5891 25.854 35.7977 28.0156 37.9592C30.1774 40.1208 33.386 40.5538 35.9977 39.3121L31.3304 34.6444L34.6449 31.3299L39.3122 35.9972C40.554 33.3859 40.1212 30.177 37.9594 28.0154C35.7978 25.8538 32.5892 25.4208 29.9775 26.6626L13.3372 10.0226C14.579 7.41119 14.1463 4.20228 11.9847 2.04072C9.82285 -0.12114 6.61424 -0.553879 4.00255 0.687879L8.6699 5.35523L5.35539 8.66973L0.688044 4.00239Z" fill="black"/>
<path d="M1.37306 38.6269C3.2035 40.4577 6.17163 40.4577 8.00207 38.6269L18.3509 28.2781L20.0083 29.9355L21.6654 28.2781L11.7219 18.3346L10.0644 19.9917L11.7219 21.6491L1.37306 31.9979C-0.457686 33.8283 -0.457686 36.7965 1.37306 38.6269ZM12.5504 25.7922L14.2075 27.4496L5.51612 36.141L3.85902 34.4835L12.5504 25.7922Z" fill="black"/>
<path d="M29.9665 2.76184L31.9453 4.74059L21.6572 15.0283L24.9717 18.3432L35.2598 8.05479L37.2382 10.0335L40.0001 2.85186L37.1485 0L29.9665 2.76184Z" fill="black"/>
</svg>
