<svg width="20" height="50" viewBox="0 0 20 50" fill="none" xmlns="http://www.w3.org/2000/svg">
<path d="M9.05729 12.652C9.29005 12.9269 9.63233 13.0859 9.99252 13.0859C10.3538 13.0859 10.6961 12.929 10.9299 12.6531C11.9767 11.4156 13.5302 9.14277 13.5302 6.54244C13.5302 3.94421 11.9778 1.67247 10.9309 0.433916C10.6971 0.159032 10.3559 0 9.99463 0C9.63444 0 9.2911 0.156926 9.05834 0.432863C8.01041 1.67036 6.45906 3.94316 6.45801 6.54244C6.45906 9.14172 8.00936 11.4145 9.05729 12.652Z" fill="#0F0F2D"/>
<path d="M10.0011 21.1692C10.1927 21.1776 14.7973 21.3609 17.5135 18.6458C19.3503 16.8079 19.8611 14.1033 19.9959 12.4877C20.0254 12.1286 19.8958 11.7737 19.6409 11.5188C19.3861 11.2639 19.0311 11.1344 18.671 11.1649C17.0554 11.2997 14.3487 11.8095 12.5098 13.6462C10.4813 15.6768 10.0727 18.7648 9.99896 20.274C9.92629 18.7648 9.5166 15.6768 7.48709 13.6462C5.64822 11.8084 2.94362 11.2987 1.32697 11.1649C0.967826 11.1344 0.6129 11.265 0.358027 11.5198C0.103154 11.7758 -0.0253348 12.1296 0.00415459 12.4888C0.138963 14.1044 0.648708 16.809 2.48548 18.6458C5.20482 21.3609 9.80833 21.1776 10.0011 21.1692Z" fill="#0F0F2D"/>
<path d="M12.512 23.3904C10.4835 25.4209 10.0749 28.5079 10.0012 30.0181C9.92849 28.5079 9.5188 25.4209 7.48929 23.3904C5.65042 21.5526 2.94581 21.0428 1.32916 20.9091C0.970024 20.8796 0.615097 21.0091 0.360224 21.264C0.105352 21.5189 -0.0231376 21.8738 0.00635185 22.2329C0.141161 23.8485 0.650906 26.5542 2.48768 28.3899C5.20386 31.1061 9.80632 30.9218 10.0001 30.9133C10.1918 30.9228 14.7964 31.1071 17.5125 28.3899C19.3504 26.5521 19.8601 23.8475 19.9949 22.2308C20.0244 21.8717 19.8949 21.5168 19.64 21.2629C19.3851 21.0081 19.0302 20.8785 18.67 20.9091C17.0555 21.0428 14.3508 21.5526 12.512 23.3904Z" fill="#0F0F2D"/>
<path d="M12.5119 33.1366C10.4835 35.1672 10.0748 38.253 10.0011 39.7644C9.92844 38.253 9.51874 35.1672 7.48924 33.1366C5.65142 31.2977 2.94682 30.789 1.33122 30.6553C0.971025 30.6258 0.617152 30.7553 0.36228 31.0092C0.107407 31.263 -0.0231895 31.619 0.00629988 31.977C0.141109 33.5916 0.649801 36.2993 2.48762 38.1351C4.34546 39.9939 7.08797 40.4942 8.6962 40.6227V47.6454C8.6962 48.4416 9.24807 49.0872 10.0453 49.0872C10.8416 49.0872 11.3945 48.4416 11.3945 47.6454V40.6153C13.0132 40.4763 15.6873 39.9602 17.5125 38.1361C19.3493 36.2993 19.8601 33.5947 19.9949 31.9781C20.0243 31.619 19.8948 31.263 19.6399 31.0092C19.3851 30.7543 19.0301 30.6247 18.6699 30.6553C17.0554 30.788 14.3508 31.2977 12.5119 33.1366Z" fill="#0F0F2D"/>
</svg>
