<svg width="25" height="40" viewBox="0 0 25 40" fill="none" xmlns="http://www.w3.org/2000/svg">
<path d="M17.9687 5.85931H7.8124C7.16521 5.85931 6.64052 5.33462 6.64052 4.68743V1.17188C6.64052 0.524688 7.16521 0 7.8124 0H17.9687C18.6159 0 19.1406 0.524688 19.1406 1.17188V4.68743C19.1406 5.33462 18.6159 5.85931 17.9687 5.85931Z" fill="#0F0F2D"/>
<path d="M9.375 25.3915V24.2196H10.5469C11.193 24.2196 11.7188 24.7453 11.7188 25.3915V26.5634H10.5469C9.9007 26.5634 9.375 26.0377 9.375 25.3915Z" fill="#0F0F2D"/>
<path d="M25 32.1871H14.0626V28.9071H15.2344C17.173 28.9071 18.7501 27.33 18.7501 25.3915V23.0478C18.7501 22.4006 18.2254 21.8759 17.5782 21.8759H15.2344C14.3347 21.8759 13.5132 22.216 12.8907 22.7739C12.2682 22.216 11.4467 21.8759 10.5469 21.8759H8.20317C7.55598 21.8759 7.03129 22.4006 7.03129 23.0478V25.3915C7.03129 27.33 8.60841 28.9071 10.5469 28.9071H11.7188V32.1872H0.781361V19.5317H25V32.1871Z" fill="#0F0F2D"/>
<path d="M25 38.828C25 39.4752 24.4753 39.9999 23.8281 39.9999H1.95316C1.30597 39.9999 0.781282 39.4752 0.781282 38.828V34.5308H25V38.828Z" fill="#0F0F2D"/>
<path d="M15.2344 24.2196H16.4062V25.3915C16.4062 26.0377 15.8805 26.5634 15.2344 26.5634H14.0625V25.3915C14.0625 24.7453 14.5882 24.2196 15.2344 24.2196Z" fill="#0F0F2D"/>
<path d="M3.80598 11.8193L7.81262 10.4837V8.20312H17.9687V10.4837L21.9755 11.8193C23.6715 12.3848 25 14.2282 25 16.016V17.188H0.781282V16.016C0.781282 14.2282 2.10988 12.3848 3.80598 11.8193Z" fill="#0F0F2D"/>
</svg>
