<svg width="44" height="28" viewBox="0 0 44 28" fill="none" xmlns="http://www.w3.org/2000/svg">
<path d="M16.3855 1.28906C16.3855 0.577156 15.8083 0 15.0964 0H9.57349C8.86158 0 8.28442 0.577156 8.28442 1.28906V2.94482H16.3855V1.28906Z" fill="#0F0F2D"/>
<path d="M19.1474 6.81189C19.1474 6.09998 18.5702 5.52283 17.8583 5.52283H6.8125C6.10059 5.52283 5.52344 6.09998 5.52344 6.81189V8.46765H19.1474V6.81189Z" fill="#0F0F2D"/>
<path d="M10.6792 12.335V13.9907H20.6194C21.1401 13.9907 21.6047 13.7486 21.9084 13.3717V12.335C21.9084 11.6231 21.3313 11.0459 20.6194 11.0459H10.4575C10.6006 11.4494 10.6792 11.8831 10.6792 12.335Z" fill="#0F0F2D"/>
<path d="M37.0966 6.81177H39.9496C40.6615 6.81177 41.2387 6.23461 41.2387 5.52271C41.2387 4.8108 40.6615 4.23364 39.9496 4.23364H30.2847C29.5728 4.23364 28.9956 4.8108 28.9956 5.52271V8.46753H37.0967V6.81177H37.0966Z" fill="#0F0F2D"/>
<path d="M43.9019 11.8417C43.7023 11.36 43.2323 11.0459 42.711 11.0459H26.1422C25.4303 11.0459 24.8531 11.6231 24.8531 12.335C24.8531 14.6695 22.9538 16.5688 20.6192 16.5688H8.10107V12.335C8.10107 11.6231 7.52392 11.0459 6.81201 11.0459H1.28906C0.577156 11.0459 0 11.6231 0 12.335V26.1423C0 26.8542 0.577156 27.4313 1.28906 27.4313H26.9513C28.5545 27.4313 30.0619 26.8069 31.1959 25.6731L43.6224 13.2465C43.9911 12.8778 44.1013 12.3234 43.9019 11.8417Z" fill="#0F0F2D"/>
</svg>
