<svg width="40" height="39" viewBox="0 0 40 39" fill="none" xmlns="http://www.w3.org/2000/svg">
<path d="M19.6905 24.7945C23.8825 24.7945 27.2929 21.3841 27.2929 17.1922C27.2929 14.8957 26.2427 12.7166 24.4637 11.2788C24.6082 10.9119 24.6833 10.5191 24.6833 10.1223C24.6833 8.38095 23.2665 6.96419 21.5252 6.96419C21.4242 6.96419 21.3235 6.96898 21.2235 6.97857C20.9051 3.07724 17.6283 0 13.6464 0C11.0498 0 8.6278 1.33822 7.23636 3.51709C6.94138 3.46741 6.64318 3.44231 6.3455 3.44231C3.3895 3.44231 0.984499 5.84721 0.984499 8.80331C0.984499 9.96404 1.35863 11.0839 2.0467 12.0062C0.723271 13.4171 0 15.2407 0 17.1922C0 21.3842 3.41044 24.7945 7.60237 24.7945C7.99733 24.7945 8.38678 24.7641 8.76852 24.706L11.5742 29.0408L10.207 37.901C10.1634 38.1852 10.2377 38.4563 10.4164 38.6646C10.5968 38.8749 10.8691 38.9954 11.1633 38.9954H16.1657C16.46 38.9954 16.7323 38.8748 16.9127 38.6645C17.0914 38.4562 17.1658 38.1849 17.122 37.9007L15.7778 29.1895L18.6666 24.7262C19.0028 24.7709 19.3445 24.7945 19.6905 24.7945ZM13.7242 26.6118L11.7544 23.5684C12.4723 23.0998 13.1129 22.5067 13.6464 21.8052C14.207 22.5423 14.8861 23.1594 15.6487 23.6384L13.7242 26.6118Z" fill="#0F0F2D"/>
<path d="M36.7757 15.277C36.7881 15.1733 36.7942 15.0696 36.7942 14.9664C36.7942 13.7938 36.0479 12.7769 34.9688 12.4074C34.7266 9.10518 31.9466 6.48218 28.593 6.48218C28.4304 6.48218 28.2635 6.48874 28.0963 6.50186C27.8971 6.51749 27.715 6.63769 27.6093 6.82329C27.5103 6.99693 27.5015 7.19389 27.5849 7.36377C27.9841 8.17672 28.1986 9.04852 28.2224 9.95469C28.2255 10.0703 28.2782 10.2476 28.3726 10.3616C29.96 12.285 30.8341 14.7108 30.8341 17.1921C30.8341 19.646 30.0234 21.9575 28.49 23.8764C28.373 24.0227 28.2599 24.3532 28.4545 24.6169C28.8829 25.1987 29.4044 25.6951 29.9883 26.0955L28.6532 28.1582L27.2964 26.0746C27.2251 25.9574 27.1167 25.982 27.0716 26.0177C26.3615 26.5793 25.5823 27.0571 24.749 27.4362C24.6776 27.4687 24.5951 27.6369 24.7059 27.7974L26.7376 30.9365L25.6661 37.9007C25.6224 38.1849 25.6967 38.456 25.8755 38.6643C26.0559 38.8746 26.3281 38.9952 26.6225 38.9952H30.5937C30.8879 38.9952 31.1602 38.8746 31.3406 38.6644C31.5193 38.4561 31.5937 38.1849 31.55 37.9007L30.4973 31.0599L33.0005 27.1924C33.201 27.2116 33.4026 27.2241 33.6057 27.2241C37.1316 27.2241 40 24.3557 40 20.8299C40.0001 18.5071 38.7748 16.4145 36.7757 15.277Z" fill="#0F0F2D"/>
</svg>
