<svg width="41" height="40" viewBox="0 0 41 40" fill="none" xmlns="http://www.w3.org/2000/svg">
<path d="M30.3472 0H2.38965C1.06989 0 0 1.06989 0 2.38965C0 3.7095 1.06989 4.7793 2.38965 4.7793L7.45504 4.78494C8.19402 4.78494 8.79325 5.38408 8.79325 6.12315C8.79325 6.86222 8.19402 7.46135 7.45504 7.46135H3.21408V17.6105H2.38965C1.06989 17.6105 0 18.6802 0 20.0001C0 21.3199 1.06989 22.3898 2.38965 22.3898L7.45504 22.3967C8.19402 22.3967 8.79325 22.9958 8.79325 23.7349C8.79325 24.474 8.19402 25.0731 7.45504 25.0731H3.21408V35.2207H2.38965C1.06989 35.2207 0 36.2906 0 37.6103C0 38.9301 1.06989 40 2.38965 40H23.4395C20.8283 37.8654 19.1582 34.6203 19.1582 30.9923C19.1582 28.3147 20.8233 24.7671 24.2489 20.1465C26.6122 16.9587 28.9432 14.4505 29.0413 14.3454L29.5229 13.8288V4.7793H30.3473C31.6671 4.7793 32.737 3.7095 32.737 2.38965C32.7369 1.06989 31.667 0 30.3472 0Z" fill="#0F0F2D"/>
<path d="M35.9649 22.0958C33.8723 19.2734 31.7499 16.9898 31.7288 16.9671C31.6206 16.851 31.469 16.7852 31.3104 16.7852C31.1517 16.7852 31.0002 16.851 30.892 16.9671C30.8707 16.9898 28.7482 19.2734 26.6559 22.0958C23.7977 25.9512 22.3486 28.9439 22.3486 30.991C22.3486 35.9327 26.369 39.9533 31.3106 39.9533C36.2522 39.9533 40.2727 35.9328 40.2727 30.991C40.2724 28.9437 38.8231 25.9512 35.9649 22.0958ZM32.2054 37.0529C31.7357 37.164 31.2515 37.2202 30.7661 37.2202C27.3174 37.2202 24.5115 34.4144 24.5115 30.9655C24.5115 30.4899 24.6578 29.6287 25.3551 28.2248C25.4252 28.0836 25.5867 28.0137 25.7376 28.0586C25.8885 28.1035 25.9854 28.2506 25.9668 28.4071C25.9507 28.5422 25.9427 28.6694 25.9427 28.7851C25.9427 32.4818 28.5719 35.6929 32.1943 36.4203C32.3436 36.4501 32.4517 36.5801 32.4544 36.7322C32.4572 36.8846 32.3535 37.0179 32.2054 37.0529Z" fill="#0F0F2D"/>
</svg>
