<svg width="60" height="60" viewBox="0 0 60 60" fill="none" xmlns="http://www.w3.org/2000/svg">
<path d="M37.0725 15.755C35.2275 15.67 34.6725 15.655 30 15.655C25.3275 15.655 24.775 15.6725 22.93 15.755C18.1825 15.9725 15.9725 18.22 15.755 22.93C15.6725 24.775 15.6525 25.3275 15.6525 30C15.6525 34.6725 15.6725 35.225 15.755 37.0725C15.9725 41.77 18.1725 44.03 22.93 44.2475C24.7725 44.33 25.3275 44.35 30 44.35C34.675 44.35 35.2275 44.3325 37.0725 44.2475C41.82 44.0325 44.0275 41.7775 44.2475 37.0725C44.33 35.2275 44.3475 34.6725 44.3475 30C44.3475 25.3275 44.33 24.775 44.2475 22.93C44.0275 18.2225 41.815 15.9725 37.0725 15.755ZM30 38.9875C25.0375 38.9875 21.0125 34.965 21.0125 30C21.0125 25.0375 25.0375 21.015 30 21.015C34.9625 21.015 38.9875 25.0375 38.9875 30C38.9875 34.9625 34.9625 38.9875 30 38.9875ZM39.3425 22.76C38.1825 22.76 37.2425 21.82 37.2425 20.66C37.2425 19.5 38.1825 18.56 39.3425 18.56C40.5025 18.56 41.4425 19.5 41.4425 20.66C41.4425 21.8175 40.5025 22.76 39.3425 22.76ZM35.8325 30C35.8325 33.2225 33.22 35.8325 30 35.8325C26.78 35.8325 24.1675 33.2225 24.1675 30C24.1675 26.7775 26.78 24.1675 30 24.1675C33.22 24.1675 35.8325 26.7775 35.8325 30ZM30 0C13.4325 0 0 13.4325 0 30C0 46.5675 13.4325 60 30 60C46.5675 60 60 46.5675 60 30C60 13.4325 46.5675 0 30 0ZM47.395 37.215C47.1075 43.5775 43.565 47.1025 37.2175 47.395C35.35 47.48 34.7525 47.5 30 47.5C25.2475 47.5 24.6525 47.48 22.785 47.395C16.425 47.1025 12.8975 43.5725 12.605 37.215C12.52 35.35 12.5 34.7525 12.5 30C12.5 25.2475 12.52 24.6525 12.605 22.785C12.8975 16.425 16.4275 12.8975 22.785 12.6075C24.6525 12.52 25.2475 12.5 30 12.5C34.7525 12.5 35.35 12.52 37.2175 12.6075C43.58 12.9 47.11 16.4375 47.395 22.785C47.48 24.6525 47.5 25.2475 47.5 30C47.5 34.7525 47.48 35.35 47.395 37.215Z" fill="#E44DC3"/>
</svg>
