<svg width="48" height="60" viewBox="0 0 48 60" fill="none" xmlns="http://www.w3.org/2000/svg">
<path d="M47.3341 13.3188C47.2688 13.3188 47.2688 13.2535 47.2035 13.1882C47.1382 13.123 47.1382 13.0577 47.0729 12.9924L35.8433 0.39173C35.778 0.326442 35.6474 0.261153 35.5822 0.195865C35.5169 0.195865 35.5169 0.130577 35.4516 0.130577C35.321 0.0652884 35.1251 0 34.9293 0H7.37758C3.32971 0 0 3.32971 0 7.37758V52.6224C0 56.6703 3.32971 60 7.37758 60H40.0218C44.0696 60 47.3993 56.6703 47.3993 52.6224V13.7758C47.3993 13.6453 47.3341 13.4494 47.3341 13.3188ZM36.1698 4.43961L43.4168 12.6007H36.1698V4.43961ZM44.9184 52.5571C44.9184 55.2992 42.7639 57.519 40.0218 57.519H7.37758C4.63547 57.519 2.48096 55.2992 2.48096 52.6224V7.3123C2.48096 4.57018 4.70076 2.41567 7.37758 2.41567H33.6888V13.7758C33.6888 14.4287 34.2111 15.0163 34.9293 15.0163H44.9184V52.5571Z" fill="#ACC2D6"/>
<path d="M8.81372 15.0156H19.7169C20.3698 15.0156 20.9574 14.4933 20.9574 13.7751C20.9574 13.057 20.435 12.5347 19.7169 12.5347H8.81372C8.16084 12.5347 7.57324 13.057 7.57324 13.7751C7.57324 14.4933 8.16084 15.0156 8.81372 15.0156Z" fill="#ACC2D6"/>
<path d="M19.7169 44.9839H8.81372C8.16084 44.9839 7.57324 45.5062 7.57324 46.2244C7.57324 46.8773 8.09555 47.4648 8.81372 47.4648H19.7169C20.3698 47.4648 20.9574 46.9425 20.9574 46.2244C20.9574 45.5715 20.3698 44.9839 19.7169 44.9839Z" fill="#ACC2D6"/>
<path d="M7.57324 22.0022C7.57324 22.6551 8.09555 23.2427 8.81372 23.2427H37.9323C38.5852 23.2427 39.1728 22.7204 39.1728 22.0022C39.1728 21.3493 38.6505 20.7617 37.9323 20.7617H8.81372C8.16084 20.7617 7.57324 21.284 7.57324 22.0022Z" fill="#ACC2D6"/>
<path d="M37.9323 26.8989H8.81372C8.16084 26.8989 7.57324 27.4212 7.57324 28.1394C7.57324 28.7923 8.09555 29.3799 8.81372 29.3799H37.9323C38.5852 29.3799 39.1728 28.8576 39.1728 28.1394C39.1728 27.4212 38.6505 26.8989 37.9323 26.8989Z" fill="#ACC2D6"/>
<path d="M37.9323 32.9707H8.81372C8.16084 32.9707 7.57324 33.493 7.57324 34.2112C7.57324 34.8641 8.09555 35.4517 8.81372 35.4517H37.9323C38.5852 35.4517 39.1728 34.9294 39.1728 34.2112C39.1728 33.493 38.6505 32.9707 37.9323 32.9707Z" fill="#ACC2D6"/>
<path d="M37.9323 39.0425H8.81372C8.16084 39.0425 7.57324 39.5648 7.57324 40.283C7.57324 40.9358 8.09555 41.5234 8.81372 41.5234H37.9323C38.5852 41.5234 39.1728 41.0011 39.1728 40.283C39.1728 39.6301 38.6505 39.0425 37.9323 39.0425Z" fill="#ACC2D6"/>
</svg>
