<svg width="102" height="102" viewBox="0 0 102 102" fill="none" xmlns="http://www.w3.org/2000/svg">
<path d="M51 0C22.8775 0 0 22.8775 0 51C0 79.1225 22.8775 102 51 102C79.1225 102 102 79.1225 102 51C102 22.8775 79.1225 0 51 0Z" fill="url(#paint0_linear)"/>
<path d="M76.8486 40.1924L49.2234 67.8169C48.3946 68.6457 47.3067 69.0628 46.2188 69.0628C45.1308 69.0628 44.0429 68.6457 43.2141 67.8169L29.4019 54.0047C27.7397 52.3432 27.7397 49.6569 29.4019 47.9954C31.0633 46.3332 33.7489 46.3332 35.4111 47.9954L46.2188 58.8031L70.8394 34.1832C72.5008 32.521 75.1864 32.521 76.8486 34.1832C78.5101 35.8447 78.5101 38.5302 76.8486 40.1924Z" fill="#FAFAFA"/>
<defs>
<linearGradient id="paint0_linear" x1="0" y1="51" x2="102" y2="51" gradientUnits="userSpaceOnUse">
<stop stop-color="#4FACFE"/>
<stop offset="1" stop-color="#00F2FE"/>
</linearGradient>
</defs>
</svg>
