<svg width="41" height="46" viewBox="0 0 41 46" fill="none" xmlns="http://www.w3.org/2000/svg">
<path d="M9.36328 18.9684C7.15759 18.9684 5.36328 20.7628 5.36328 22.9684V33.8129C5.36328 36.0186 7.15759 37.8129 9.36328 37.8129C11.569 37.8129 13.3633 36.0186 13.3633 33.8129V22.9684C13.3633 20.7628 11.569 18.9684 9.36328 18.9684Z" fill="#0F0F2D"/>
<path d="M2.69694 22.9684C2.69694 22.5837 2.7477 22.2122 2.81054 21.8453C1.20361 22.3647 0.0302734 23.8573 0.0302734 25.635V31.1461C0.0302734 32.9238 1.20361 34.4164 2.81054 34.9358C2.7477 34.569 2.69694 34.1974 2.69694 33.8128V22.9684Z" fill="#0F0F2D"/>
<path d="M30.6969 18.9684C28.4913 18.9684 26.6969 20.7628 26.6969 22.9684V33.8129C26.6969 36.0186 28.4913 37.8129 30.6969 37.8129C31.0978 37.8129 31.4776 37.7357 31.8429 37.6255C31.3465 39.2708 29.8352 40.4796 28.0303 40.4796H23.7847C23.2324 38.9309 21.7663 37.8129 20.0303 37.8129C17.8246 37.8129 16.0303 39.6072 16.0303 41.8129C16.0303 44.0186 17.8246 45.8129 20.0303 45.8129C21.7663 45.8129 23.2324 44.6948 23.7847 43.1462H28.0303C31.7061 43.1462 34.6969 40.1554 34.6969 36.4796V33.8129V22.9684C34.6969 20.7628 32.9026 18.9684 30.6969 18.9684Z" fill="#0F0F2D"/>
<path d="M37.25 21.8453C37.3128 22.2122 37.3636 22.5837 37.3636 22.9684V33.8128C37.3636 34.1974 37.3128 34.569 37.25 34.9358C38.8569 34.4164 40.0303 32.9238 40.0303 31.1461V25.635C40.0303 23.8573 38.8569 22.3647 37.25 21.8453Z" fill="#0F0F2D"/>
<path d="M20.0303 0.301758C9.00165 0.301758 0.0302734 9.27314 0.0302734 20.3018V20.3358C0.824673 19.7344 1.74378 19.2943 2.75801 19.0972C3.38121 10.1018 10.8795 2.96842 20.0303 2.96842C29.181 2.96842 36.6793 10.1018 37.3025 19.0971C38.3167 19.2942 39.2358 19.7344 40.0303 20.3357V20.3018C40.0303 9.27314 31.0589 0.301758 20.0303 0.301758Z" fill="#0F0F2D"/>
</svg>
