<svg width="18" height="18" viewBox="0 0 18 18" fill="none" xmlns="http://www.w3.org/2000/svg">
<path d="M9 0C4.02975 0 0 4.02975 0 9C0 13.9703 4.02975 18 9 18C13.9703 18 18 13.9703 18 9C18 4.02975 13.9703 0 9 0ZM7.98675 4.86975C7.92675 4.269 8.39925 3.75 9 3.75C9.60075 3.75 10.0732 4.269 10.0133 4.86975L9.4125 10.8773C9.39075 11.0887 9.213 11.25 9 11.25C8.787 11.25 8.60925 11.0887 8.5875 10.8765L7.98675 4.86975ZM9 14.4375C8.4825 14.4375 8.0625 14.0175 8.0625 13.5C8.0625 12.9825 8.4825 12.5625 9 12.5625C9.5175 12.5625 9.9375 12.9825 9.9375 13.5C9.9375 14.0175 9.5175 14.4375 9 14.4375Z" fill="#49B2FE"/>
</svg>
