<svg width="390" height="86" viewBox="0 0 390 86" fill="none" xmlns="http://www.w3.org/2000/svg">
<path d="M84.6007 69.6801C84.7445 69.5319 84.6748 69.6069 84.8152 69.4578" stroke="#1D1D1B" stroke-miterlimit="22.9256"/>
<path d="M48.5626 1.07873C45.9787 1.03427 43.7401 2.68188 42.0245 4.66075C40.0752 6.9116 38.6613 9.74566 37.5402 12.5736C36.9544 14.0556 36.4557 15.5846 35.9981 17.1172C35.7609 17.9105 35.5439 18.7107 35.3547 19.5188C35.2754 19.8579 35.2414 20.2459 35.0932 20.5545C34.9354 20.8857 34.8883 21.2841 34.8099 21.6503C33.3709 28.353 32.6404 35.1885 32.6305 42.0439C32.6305 43.7572 32.6709 45.4696 32.7517 47.1812C32.7923 48.0337 32.8438 48.8857 32.906 49.7371C32.9373 50.1736 32.9713 50.6095 33.008 51.0448C33.0402 51.4214 33.0027 51.8006 33.0367 52.178C33.3462 55.5717 33.8318 58.947 34.4917 62.2903C34.5771 62.7244 34.6643 63.1577 34.7532 63.5901C34.7777 63.7706 34.8159 63.9489 34.8674 64.1236C34.9214 64.264 34.9921 64.3537 35.0252 64.5063C35.1995 65.3013 35.3617 66.0946 35.5683 66.8792C35.979 68.4201 36.4702 69.9385 37.0398 71.428C38.0362 74.0642 39.1451 76.716 40.6654 79.0471C42.1169 81.2735 44.1289 83.3823 46.5994 84.1233C47.2531 84.3207 47.9338 84.4143 48.6166 84.4005" stroke="#0F0F2D" stroke-miterlimit="22.9256"/>
<path d="M47.37 1.03688C45.9752 0.981958 44.6528 1.14236 43.2554 1.30363C42.0776 1.54511 41.0481 1.78571 39.8704 2.10739C38.9882 2.42906 38.1783 2.75074 37.2952 3.07241C33.5432 4.60059 30.3779 7.09379 27.4366 10.0699C26.9214 10.552 26.5535 11.116 26.0418 11.5981C24.5703 13.2065 23.4667 14.9761 22.2933 16.9062C20.9691 19.3192 19.7914 21.5709 18.8351 24.0641C18.7619 24.2245 18.8351 24.3056 18.7619 24.466C15.5172 33.0719 14.7814 42.3212 16.2556 51.7273C17.5065 59.689 20.5228 66.6865 25.3793 72.7992C25.4525 72.8794 25.4525 73.0398 25.5266 73.1209C26.8508 74.6482 28.1018 76.016 29.5733 77.3829C30.7501 78.3479 31.8538 79.2327 33.1047 80.0374C34.4995 80.8411 35.8263 81.7259 37.2978 82.2891H37.5925C40.5355 83.7371 43.7732 84.3002 46.9097 84.3037" stroke="#0F0F2D" stroke-miterlimit="22.9256"/>
<path d="M72.0475 6.79826C65.492 11.9625 57.4841 14.644 49.4762 14.8018C44.0653 14.8802 38.6543 13.9344 33.6034 11.6469C30.5732 10.3062 27.6154 8.72918 25.0873 6.48007" stroke="#0F0F2D" stroke-miterlimit="22.9256"/>
<path d="M72.2419 78.7045C66.0193 73.5542 57.7002 70.4028 48.5573 70.4028C39.4144 70.4028 31.1032 73.5507 24.8859 78.6975" stroke="#0F0F2D" stroke-miterlimit="22.9256"/>
<path d="M89.5515 63.5064C80.4164 59.2775 65.4729 56.5219 48.5706 56.5219C31.6682 56.5219 16.7186 59.2784 7.58704 63.5073" stroke="#0F0F2D" stroke-miterlimit="22.9256"/>
<path d="M48.5687 0.995056V42.6463V84.2968" stroke="#0F0F2D" stroke-miterlimit="22.9256"/>
<path d="M48.5435 1.03863C51.1265 0.995039 53.3651 2.64177 55.0816 4.62064C57.0308 6.8715 58.4448 9.70555 59.5659 12.5335C60.1517 14.0155 60.6503 15.5454 61.108 17.0771C61.3451 17.8704 61.5622 18.6706 61.7513 19.4787C61.8307 19.8178 61.8647 20.2058 62.0129 20.5144C62.1707 20.8456 62.2177 21.2449 62.2962 21.6102C63.0198 24.9912 63.5654 28.408 63.9307 31.8462C64.2871 35.2204 64.4681 38.6109 64.4729 42.0038C64.4729 43.7165 64.4326 45.429 64.3518 47.1411C64.3111 47.9936 64.2597 48.8456 64.1975 49.697C64.1661 50.1335 64.1321 50.5694 64.0955 51.0047C64.0632 51.3813 64.1007 51.7605 64.0667 52.1379C63.7572 55.5316 63.2716 58.9069 62.6118 62.2502C62.5263 62.6832 62.4392 63.1162 62.3502 63.5491C62.3258 63.7296 62.2876 63.908 62.236 64.0826C62.182 64.2239 62.1114 64.3136 62.0783 64.4662C61.9039 65.2604 61.7418 66.0537 61.5352 66.8391C61.1243 68.3797 60.6331 69.8977 60.0636 71.387C59.0672 74.0232 57.9584 76.6759 56.438 79.007C54.9866 81.2325 52.9746 83.3422 50.504 84.0832C49.8502 84.2799 49.1695 84.3731 48.4868 84.3595" stroke="#0F0F2D" stroke-miterlimit="22.9256"/>
<path d="M49.886 1.1171C51.2808 1.06218 52.6032 1.22345 54.0006 1.38385C55.1784 1.62533 56.2079 1.8668 57.3856 2.18848C58.2687 2.51015 59.0777 2.83183 59.9608 3.1535C63.7093 4.68168 66.8764 7.17488 69.8194 10.1502C70.3346 10.6331 70.7025 11.1963 71.2142 11.6783C72.6857 13.2867 73.7893 15.0564 74.9627 16.9864C76.2869 19.3994 77.4646 21.6511 78.4209 24.1443C78.4942 24.3056 78.4209 24.3858 78.4942 24.5462C81.7388 33.1521 82.4746 42.3996 81.0031 51.8145C79.7521 59.7771 76.7315 66.7737 71.8793 72.8864C71.8061 72.9666 71.8061 73.1279 71.7329 73.2081C70.4078 74.7363 69.1577 76.1032 67.6862 77.471C66.5085 78.436 65.4049 79.3199 64.1539 80.1246C62.7591 80.9292 61.4323 81.8131 59.9608 82.3763H59.6687C56.7257 83.8243 53.4889 84.3874 50.3515 84.3918" stroke="#0F0F2D" stroke-miterlimit="22.9256"/>
<path d="M1.22144 42.329C16.9888 42.3613 32.8075 42.3613 48.5574 42.329" stroke="#0F0F2D" stroke-miterlimit="22.9256"/>
<path d="M48.3647 42.3464C64.1329 42.3787 79.9517 42.3787 95.7007 42.3464" stroke="#0F0F2D" stroke-miterlimit="22.9256"/>
<path d="M89.6141 21.8063C80.4817 26.0343 65.5355 28.7934 48.6323 28.7934C31.7291 28.7934 16.7786 26.0343 7.6488 21.8046" stroke="#0F0F2D" stroke-miterlimit="22.9256"/>
<path fill-rule="evenodd" clip-rule="evenodd" d="M48.7439 0.0297391C44.1351 -0.142778 39.7674 0.439592 35.197 1.66453L35.1916 1.66601C35.0156 1.71422 34.8513 1.74182 34.6393 1.77741L34.6393 1.77742C34.5685 1.7893 34.4924 1.80208 34.4088 1.81681C34.1089 1.86966 33.7239 1.94729 33.3407 2.12625L33.3112 2.14004L33.2826 2.15572C33.1449 2.23133 32.9399 2.28512 32.5595 2.36858C32.4449 2.38786 32.349 2.42349 32.2758 2.45846C32.1704 2.50876 32.0924 2.56684 32.0449 2.60584L32.0381 2.61144C31.8758 2.65457 31.6968 2.69411 31.4901 2.73931L31.4716 2.74336C31.2082 2.80099 30.8962 2.86923 30.5972 2.96249L30.5583 2.97462L30.5205 2.98987C30.2184 3.11185 29.9076 3.23296 29.5913 3.35621L29.5912 3.35624C28.5409 3.7655 27.4303 4.19826 26.3779 4.76413C26.3517 4.77116 26.3186 4.77867 26.2669 4.78994L26.2576 4.79198C26.1649 4.81216 26.0179 4.84414 25.844 4.9074L25.7786 4.93117L25.7172 4.96375C25.4251 5.11863 25.1336 5.27196 24.8423 5.42514C22.7708 6.51461 20.7147 7.59591 18.6089 9.16831L18.5989 9.172L18.5943 9.17366C18.5306 9.19679 18.4183 9.2376 18.2785 9.3137L18.1815 9.3665L18.0984 9.43919C17.5826 9.89022 17.1255 10.1999 16.5586 10.584L16.5585 10.584C16.3785 10.706 16.1873 10.8355 15.9797 10.9794L15.9335 11.0114L15.8911 11.0484C15.7126 11.2046 15.5783 11.3311 15.4585 11.444C15.2627 11.6286 15.1055 11.7767 14.8565 11.9583L14.8409 11.9697L14.8257 11.9817C9.06055 16.5385 5.21923 22.4889 2.45131 29.2762L2.4328 29.3216L2.41881 29.3685C2.29329 29.7903 2.13788 30.2026 1.95378 30.6023L1.9291 30.6559L1.91088 30.712C1.0749 33.2885 0.622497 35.8495 0.253479 38.5249L0.253202 38.5269C-0.0533192 40.7832 -0.0511989 43.029 0.0990677 45.2438L0.099862 45.2555L0.100931 45.2672C0.699354 51.81 2.57021 57.9907 6.33289 63.5288C6.41661 63.7012 6.50974 63.864 6.58435 63.9944L6.59288 64.0093C6.68936 64.1781 6.75781 64.2992 6.8094 64.4119L6.84741 64.4949L6.89982 64.5696C8.57535 66.959 10.1665 69.1239 12.4403 71.0487L12.4412 71.0499C12.4649 71.0856 12.4912 71.1284 12.5302 71.1921L12.5344 71.1991C12.5686 71.255 12.614 71.3295 12.6616 71.401C12.71 71.4737 12.7794 71.5723 12.8663 71.6674L12.9004 71.7048L12.9382 71.7385C14.5862 73.2118 16.1564 74.4376 17.9221 75.805L17.9336 75.8139L17.9455 75.8226C19.9904 77.3126 21.9189 78.4 23.9378 79.5382L23.938 79.5383L23.9443 79.5418C24.1583 79.6625 24.3734 79.7838 24.5897 79.9061L24.5968 79.9101L24.6039 79.914C24.8792 80.0639 25.1653 80.1294 25.3281 80.1668L25.3456 80.1708C25.5243 80.2119 25.6133 80.2334 25.6903 80.2646C27.7782 81.3233 29.8913 82.2303 32.2413 82.8932L32.3616 82.9272L32.4865 82.9305C32.6373 82.9344 32.7865 82.9619 32.9287 83.0118C33.4112 83.2454 33.8796 83.3811 34.3096 83.4856C34.509 83.5341 34.6805 83.572 34.8432 83.608L34.8435 83.6081C35.0804 83.6605 35.2983 83.7087 35.5555 83.779C37.5879 84.3549 39.6387 84.7711 41.7034 84.9378L41.7338 84.9403C41.7579 84.9466 41.7909 84.9566 41.8531 84.976L41.8618 84.9788C41.9204 84.9971 42.0118 85.0258 42.1061 85.0487C42.1916 85.0696 42.3145 85.0949 42.4564 85.101C42.8421 85.1391 43.2256 85.1755 43.6079 85.2118C44.047 85.2535 44.4842 85.2951 44.921 85.3388L44.932 85.3399L44.9431 85.3408L44.975 85.3433C45.9837 85.4218 47.0694 85.5063 48.1337 85.4487L48.0256 83.4516C47.1081 83.5013 46.1483 83.4285 45.1094 83.3477C44.6931 83.306 44.2366 83.2626 43.7845 83.2196C43.3819 83.1813 42.9827 83.1433 42.6183 83.1072L42.5691 83.1023H42.5667C42.5429 83.096 42.5102 83.086 42.4505 83.0674L42.4417 83.0646C42.3831 83.0462 42.2917 83.0176 42.1975 82.9947C42.1098 82.9733 41.9826 82.9472 41.836 82.942C39.9381 82.7865 38.0264 82.4006 36.0965 81.8535L36.0878 81.8511C35.798 81.7718 35.4757 81.6997 35.1931 81.6365L35.1925 81.6363C35.0403 81.6023 34.8997 81.5708 34.7819 81.5422C34.3996 81.4493 34.0767 81.3495 33.7684 81.196L33.7248 81.1743L33.6794 81.157C33.3574 81.0341 33.019 80.9601 32.6756 80.9375C30.5189 80.3196 28.5539 79.4757 26.5653 78.4658L26.54 78.4529L26.514 78.4416C26.2489 78.3253 25.9888 78.2661 25.8291 78.2297L25.794 78.2217C25.7053 78.2013 25.6524 78.1883 25.6092 78.175C25.5802 78.1661 25.5661 78.1601 25.5615 78.1581C25.3478 78.0372 25.1366 77.918 24.9275 77.8001L24.9271 77.7999C22.9019 76.6577 21.0766 75.6283 19.135 74.2147C17.3965 72.8683 15.897 71.6964 14.3335 70.3031L14.3266 70.2929C14.3026 70.2568 14.2762 70.2138 14.2371 70.1498L14.2337 70.1442C14.1993 70.0879 14.1534 70.0127 14.1051 69.9404C14.0566 69.8676 13.9868 69.7686 13.8991 69.6732L13.855 69.6251L13.805 69.5832C11.7272 67.8419 10.2548 65.8682 8.58581 63.4904C8.50295 63.3205 8.41127 63.1602 8.33764 63.0315L8.32907 63.0165C8.23259 62.8478 8.16414 62.7267 8.11256 62.614L8.07717 62.5368L8.02925 62.4666C4.46641 57.2481 2.67092 51.3908 2.09369 45.0968C1.95013 42.9729 1.95273 40.8746 2.23486 38.7972C2.59535 36.1838 3.02485 33.7755 3.79567 31.3837C4.00152 30.9303 4.1771 30.4638 4.32125 29.9873C6.99433 23.4475 10.6487 17.8373 16.0516 13.5621C16.3886 13.3143 16.6982 13.0252 16.9433 12.7964L16.9433 12.7964C17.0258 12.7194 17.1009 12.6492 17.1674 12.5897C17.3196 12.4847 17.4709 12.3823 17.622 12.28L17.6222 12.2799C18.1745 11.9062 18.7233 11.5348 19.2975 11.0461C19.3626 11.0223 19.4703 10.9819 19.6027 10.9099L19.6672 10.8748L19.7259 10.8306C21.7244 9.32653 23.6606 8.30744 25.7678 7.1984L25.7678 7.19838L25.7679 7.19833C26.0352 7.05766 26.3052 6.91554 26.5785 6.77079C26.6053 6.76348 26.6389 6.75582 26.6929 6.74404L26.7023 6.74201C26.795 6.72183 26.9419 6.68985 27.1159 6.62659L27.187 6.60073L27.2534 6.56447C28.2067 6.04389 29.1852 5.6622 30.2382 5.25145L30.2384 5.25136C30.5611 5.12546 30.8909 4.99684 31.229 4.86065C31.4279 4.80085 31.6496 4.75174 31.9176 4.69309L31.9361 4.68905C32.1826 4.63512 32.4716 4.57191 32.7528 4.4876C32.8389 4.46747 32.9125 4.43892 32.9714 4.4108C33.0632 4.36695 33.1343 4.31717 33.1825 4.27929C33.4861 4.21008 33.8669 4.10864 34.2079 3.9289C34.3366 3.87228 34.4998 3.83159 34.7559 3.78646C34.8024 3.77827 34.8542 3.76964 34.9102 3.76032L34.9103 3.76029C35.1379 3.7224 35.434 3.67309 35.7171 3.59571C39.9645 2.45756 43.989 1.90485 48.1969 2.01341L48.1992 2.07279C52.5776 1.90798 56.7437 2.45703 61.1511 3.6411C61.4328 3.71776 61.7283 3.76686 61.9554 3.80461C62.0123 3.81408 62.065 3.82283 62.1121 3.83113C62.3681 3.87625 62.5312 3.91711 62.6597 3.97396C63.0008 4.15357 63.3813 4.25503 63.6852 4.32434C63.7335 4.36231 63.8046 4.41218 63.8966 4.4561C63.9556 4.48428 64.0293 4.51288 64.1156 4.53302C64.3961 4.61698 64.6841 4.67986 64.9298 4.7335L64.9512 4.73818C65.2192 4.79671 65.4406 4.84577 65.6394 4.90577C65.9775 5.04194 66.3071 5.17054 66.6298 5.29641C67.683 5.70729 68.6615 6.08901 69.6144 6.60966L69.6809 6.64601L69.7522 6.67192C69.9261 6.73518 70.0731 6.76716 70.1658 6.78734L70.1751 6.78937C70.2292 6.80116 70.2628 6.80883 70.2897 6.81615C70.5566 6.95747 70.8205 7.09631 71.0818 7.23376L71.0851 7.23552C73.1979 8.34708 75.1389 9.36825 77.1422 10.8759L77.2009 10.9201L77.2654 10.9552C77.3974 11.0271 77.5053 11.0676 77.5703 11.0912C78.1466 11.5817 78.6969 11.9537 79.2512 12.3284C79.4006 12.4294 79.5504 12.5306 79.7009 12.6344C79.7673 12.6938 79.8423 12.7639 79.9247 12.8408L79.9247 12.8408C80.1697 13.0696 80.4792 13.3586 80.8162 13.6064C86.2177 17.8844 89.8721 23.4949 92.5452 30.0347C92.6896 30.5109 92.8651 30.9771 93.0705 31.4304C93.8413 33.8222 94.27 36.2304 94.6323 38.8446C94.9136 40.9247 94.9161 43.0204 94.7726 45.1437C94.1954 51.4378 92.3999 57.2954 88.8411 62.5141L88.7934 62.5841L88.7581 62.6611C88.7065 62.7737 88.638 62.8949 88.5416 63.0636L88.533 63.0787L88.5328 63.0789C88.4592 63.2076 88.3676 63.3677 88.2848 63.5375C86.6158 65.9153 85.1435 67.8888 83.0658 69.6292L83.0147 69.6721L82.9697 69.7214C82.8827 69.8166 82.8133 69.9152 82.7649 69.9879C82.7171 70.0599 82.6714 70.1347 82.6372 70.1908L82.6333 70.1971C82.5943 70.261 82.5679 70.304 82.544 70.3401L82.5371 70.3503C80.9745 71.7435 79.4743 72.9152 77.7363 74.2611C75.7887 75.6797 73.958 76.7113 71.9247 77.857L71.9247 77.8571L71.9107 77.865C71.7114 77.9772 71.5102 78.0906 71.3068 78.2056C71.303 78.2073 71.2895 78.2132 71.2604 78.2222C71.2179 78.2353 71.1655 78.2483 71.0773 78.2686L71.0406 78.2769C70.8819 78.3131 70.6228 78.3721 70.3594 78.487L70.3325 78.4987L70.3064 78.5119C68.3166 79.522 66.3515 80.3667 64.1949 80.9846C63.8517 81.0073 63.5135 81.0812 63.1916 81.2039L63.1464 81.2212L63.103 81.2427C62.7942 81.3961 62.4711 81.496 62.0887 81.589C61.9706 81.6178 61.8293 81.6494 61.6764 81.6837L61.676 81.6838L61.6758 81.6838C61.3937 81.747 61.0721 81.8191 60.7831 81.8981L60.7746 81.9005C58.844 82.4469 56.9323 82.8336 55.0347 82.9891C54.8879 82.9943 54.7608 83.0204 54.673 83.0418C54.579 83.0647 54.4878 83.0933 54.4293 83.1117L54.4202 83.1145C54.3606 83.1332 54.328 83.1431 54.3043 83.1494H54.3015L54.2523 83.1543C53.8504 83.1941 53.4295 83.234 53.0061 83.2742L53.0033 83.2745L53.0017 83.2746C52.5841 83.3142 52.1641 83.354 51.7616 83.3939C50.723 83.4756 49.7635 83.5484 48.845 83.4987L48.7369 85.4958C49.8084 85.5537 50.8993 85.4679 51.9136 85.3881L51.9284 85.3869L51.9385 85.3861L51.9486 85.3851C52.3506 85.3453 52.7714 85.3054 53.1948 85.2653L53.1976 85.265C53.607 85.2262 54.0188 85.1871 54.4141 85.1481C54.556 85.142 54.679 85.1167 54.7648 85.0958C54.8593 85.0729 54.9508 85.0442 55.0095 85.0258L55.0182 85.023C55.0803 85.0036 55.1131 84.9936 55.1371 84.9873L55.1672 84.9849C57.2322 84.8182 59.2831 84.4009 61.3149 83.8261C61.5723 83.7559 61.7901 83.7076 62.0264 83.6552L62.0266 83.6552C62.1897 83.6191 62.3617 83.5809 62.5616 83.5323C62.9916 83.4277 63.4594 83.292 63.9415 83.059C64.0839 83.0091 64.2334 82.9816 64.3845 82.9775L64.5092 82.9742L64.6293 82.9403C66.9791 82.2774 69.092 81.3696 71.1801 80.3113C71.2576 80.2803 71.3467 80.2589 71.5259 80.2176L71.5424 80.2138C71.7057 80.1763 71.9933 80.1103 72.2698 79.9585L72.2698 79.9586L72.2805 79.9525C72.493 79.8325 72.7042 79.7135 72.9144 79.5951C74.9409 78.4536 76.875 77.3641 78.9263 75.8686L78.938 75.8601L78.9494 75.8512C80.714 74.4848 82.2853 73.2588 83.9327 71.7854L83.9703 71.7518L84.0043 71.7145C84.0913 71.6193 84.1607 71.5207 84.2091 71.448C84.2569 71.3761 84.3024 71.3015 84.3367 71.2453L84.3367 71.2452L84.3407 71.2388C84.3797 71.1748 84.4061 71.1318 84.4301 71.0958L84.4311 71.0943C86.7045 69.1705 88.2955 67.0057 89.9708 64.6167L90.0232 64.5419L90.0612 64.4589C90.1128 64.3463 90.1813 64.2251 90.2778 64.0564L90.2864 64.0414C90.361 63.9109 90.4541 63.748 90.5379 63.5756C94.2961 58.0376 96.1669 51.8571 96.7654 45.3143L96.7664 45.3026L96.7672 45.2909C96.9175 43.0759 96.9196 40.8331 96.614 38.5746L96.6136 38.5714C96.2429 35.8968 95.7914 33.3356 94.9554 30.7591L94.9373 30.7034L94.9128 30.6502C94.7289 30.2498 94.5733 29.837 94.4472 29.4148L94.4333 29.3682L94.415 29.3232C91.647 22.5359 87.8058 16.5857 82.0427 12.0265L82.0273 12.0143L82.0115 12.0027C81.7625 11.8212 81.6054 11.6731 81.4096 11.4886L81.4095 11.4885C81.2897 11.3756 81.1555 11.2491 80.9769 11.0929L80.9343 11.0556L80.8877 11.0234C80.6826 10.8814 80.4935 10.7535 80.3152 10.6328C79.7457 10.2473 79.287 9.93694 78.7696 9.48452L78.6874 9.41266L78.5917 9.36022C78.4509 9.2831 78.3373 9.24191 78.2732 9.21867L78.2689 9.21711L78.2588 9.21343C76.1483 7.63755 74.0881 6.55444 72.0115 5.46278L72.0102 5.46209C71.7241 5.31165 71.4376 5.16103 71.1506 5.00894L71.0893 4.97645L71.0241 4.95273C70.8501 4.88947 70.7032 4.85749 70.6105 4.83731L70.6011 4.83527C70.5495 4.82401 70.5164 4.81651 70.4902 4.80948C69.4381 4.24342 68.3272 3.81055 67.2767 3.4012L67.2763 3.40101C66.9604 3.27794 66.6501 3.157 66.3484 3.0352L66.3111 3.02015L66.2727 3.00814C65.9716 2.91386 65.658 2.84539 65.3937 2.78767L65.3936 2.78765L65.378 2.78424C65.1714 2.73911 64.9925 2.69975 64.8303 2.65674L64.8261 2.65325C64.779 2.61439 64.7013 2.55602 64.596 2.50532C64.5226 2.46996 64.4258 2.43357 64.3097 2.41398C63.9295 2.33056 63.7235 2.27664 63.5843 2.20045L63.5569 2.18544L63.5286 2.17217C63.145 1.99239 62.7597 1.91444 62.4592 1.86148C62.3736 1.8464 62.2959 1.83339 62.2238 1.82131C62.0136 1.78609 61.8504 1.75875 61.6751 1.71097L61.6716 1.71002C57.3041 0.536523 53.1235 -0.0457819 48.7429 0.0554006L48.7439 0.0297391Z" fill="#0F0F2D"/>
<path fill-rule="evenodd" clip-rule="evenodd" d="M83.7203 32.3039H24.9121V22.8899L26.6512 21.312V16.7484H11.0374V32.3039H5.18445V36.8318L10.8744 44.3724H93.2189C96.8802 44.3628 100.617 36.0123 101.464 28.4133H84.9948L83.7203 32.3039ZM10.8717 44.4456H26.8142V68.9592H10.8717V44.4456ZM51.5702 44.4465H35.6277V68.9601H51.5702V44.4465ZM60.7837 44.4474H76.7262V68.9601H60.7837V44.4474ZM51.313 21.659H36.6694V26.9078H51.313V21.659ZM36.6694 26.9819H51.313V32.2307H36.6694V26.9819Z" fill="url(#paint0_linear)"/>
<path fill-rule="evenodd" clip-rule="evenodd" d="M98.6724 31.0285C98.833 31.0287 98.99 30.9812 99.1236 30.8921C99.2572 30.803 99.3614 30.6763 99.4229 30.5279C99.4845 30.3796 99.5006 30.2163 99.4693 30.0588C99.4381 29.9013 99.3607 29.7566 99.2472 29.643C99.1336 29.5295 98.9889 29.4522 98.8314 29.4209C98.6739 29.3896 98.5106 29.4057 98.3623 29.4673C98.214 29.5288 98.0872 29.633 97.9981 29.7666C97.909 29.9002 97.8615 30.0572 97.8617 30.2178C97.8622 30.4327 97.9477 30.6386 98.0997 30.7906C98.2516 30.9425 98.4575 31.0281 98.6724 31.0285Z" fill="#0F0F2D"/>
<path d="M76.7515 44.4317H10.9066V44.518H76.7515V44.4317Z" fill="white" stroke="white" stroke-width="0.75" stroke-miterlimit="10"/>
<path d="M51.2964 32.1609H36.7059V32.2473H51.2964V32.1609Z" fill="white" stroke="white" stroke-width="0.75" stroke-miterlimit="10"/>
<path d="M51.2616 26.8581H36.6711V26.9444H51.2616V26.8581Z" fill="white" stroke="white" stroke-width="0.75" stroke-miterlimit="10"/>
<path d="M142.944 22.9V28.74H135.864V22.9H132.664V37H135.864V31.54H142.944V37H146.144V22.9H142.944ZM147.342 31.94C147.342 35.48 149.862 37.2 153.042 37.2C156.202 37.2 158.722 35.48 158.722 31.94C158.722 28.42 156.202 26.7 153.042 26.7C149.862 26.7 147.342 28.42 147.342 31.94ZM150.542 31.94C150.542 30.26 151.522 29.5 153.042 29.5C154.542 29.5 155.522 30.26 155.522 31.94C155.522 33.64 154.542 34.4 153.042 34.4C151.522 34.4 150.542 33.64 150.542 31.94ZM160.125 37H165.565C168.125 37 169.845 36.32 169.845 34.38C169.845 32.48 168.205 32.2 166.885 32.18V31.38C167.685 31.32 169.105 31.08 169.105 29.28C169.105 27.38 167.385 26.9 164.825 26.9H160.125V37ZM163.125 30.74V29.1H164.825C165.785 29.1 166.105 29.22 166.105 29.92C166.105 30.68 165.785 30.74 164.825 30.74H163.125ZM163.125 34.8V32.94H165.565C166.505 32.94 166.845 33.1 166.845 33.86C166.845 34.56 166.505 34.8 165.565 34.8H163.125ZM171.248 31.94C171.248 35.48 173.768 37.2 176.948 37.2C180.108 37.2 182.628 35.48 182.628 31.94C182.628 28.42 180.108 26.7 176.948 26.7C173.768 26.7 171.248 28.42 171.248 31.94ZM174.448 31.94C174.448 30.26 175.428 29.5 176.948 29.5C178.448 29.5 179.428 30.26 179.428 31.94C179.428 33.64 178.448 34.4 176.948 34.4C175.428 34.4 174.448 33.64 174.448 31.94ZM184.031 26.9V40.8H187.231V36.38L186.631 34.58H187.431C187.951 35.92 188.911 37.2 191.411 37.2C194.331 37.2 195.791 34.82 195.791 31.96C195.791 29.1 194.331 26.7 191.411 26.7C188.911 26.7 187.951 27.98 187.431 29.32H186.631L187.231 27.52V26.9H184.031ZM187.231 31.96C187.231 30.24 188.191 29.5 189.911 29.5C191.631 29.5 192.591 30.24 192.591 31.96C192.591 33.68 191.631 34.4 189.911 34.4C188.191 34.4 187.231 33.68 187.231 31.96ZM197.401 31.94C197.401 35.48 199.921 37.2 203.101 37.2C206.261 37.2 208.781 35.48 208.781 31.94C208.781 28.42 206.261 26.7 203.101 26.7C199.921 26.7 197.401 28.42 197.401 31.94ZM200.601 31.94C200.601 30.26 201.581 29.5 203.101 29.5C204.601 29.5 205.581 30.26 205.581 31.94C205.581 33.64 204.601 34.4 203.101 34.4C201.581 34.4 200.601 33.64 200.601 31.94ZM209.783 31.94C209.783 35.32 212.083 37.2 215.303 37.2C218.063 37.2 220.583 35.7 220.723 32.82H217.523C217.403 33.72 216.583 34.4 215.303 34.4C213.783 34.4 212.983 33.5 212.983 31.94C212.983 30.4 213.783 29.5 215.303 29.5C216.583 29.5 217.403 30.18 217.523 31.08H220.723C220.583 28.2 218.063 26.7 215.303 26.7C212.083 26.7 209.783 28.58 209.783 31.94ZM221.717 31.94C221.717 35.32 224.017 37.2 227.237 37.2C229.997 37.2 232.517 35.7 232.657 32.82H229.457C229.337 33.72 228.517 34.4 227.237 34.4C225.717 34.4 224.917 33.5 224.917 31.94C224.917 30.4 225.717 29.5 227.237 29.5C228.517 29.5 229.337 30.18 229.457 31.08H232.657C232.517 28.2 229.997 26.7 227.237 26.7C224.017 26.7 221.717 28.58 221.717 31.94ZM245.891 37V26.9H239.631L237.451 36.2H236.651L237.251 34.4V26.9H234.051V37H240.311L242.491 27.7H243.291L242.691 29.4V37H245.891ZM257.578 21.92H255.178C255.178 23.32 254.698 23.7 253.918 23.7C253.138 23.7 252.658 23.32 252.658 21.92H250.258C250.258 23.96 251.218 25.9 253.918 25.9C256.618 25.9 257.578 23.96 257.578 21.92ZM259.738 37V26.9H253.478L251.298 36.2H250.498L251.098 34.4V26.9H247.898V37H254.158L256.338 27.7H257.138L256.538 29.4V37H259.738ZM261.346 31.94C261.346 35.32 263.646 37.2 266.866 37.2C269.626 37.2 272.146 35.7 272.286 32.82H269.086C268.966 33.72 268.146 34.4 266.866 34.4C265.346 34.4 264.546 33.5 264.546 31.94C264.546 30.4 265.346 29.5 266.866 29.5C268.146 29.5 268.966 30.18 269.086 31.08H272.286C272.146 28.2 269.626 26.7 266.866 26.7C263.646 26.7 261.346 28.58 261.346 31.94ZM284.079 37L280.839 31.3L282.059 29.7H283.679V26.9H281.879C281.019 26.9 280.259 27.06 279.759 27.72L277.739 30.44H276.879V26.9H273.679V37H276.879V33.24H277.899C278.099 33.24 278.279 33.24 278.459 33.22L280.619 37H284.079ZM297.512 37V26.9H291.252L289.072 36.2H288.272L288.872 34.4V26.9H285.672V37H291.932L294.112 27.7H294.912L294.312 29.4V37H297.512ZM309.199 21.92H306.799C306.799 23.32 306.319 23.7 305.539 23.7C304.759 23.7 304.279 23.32 304.279 21.92H301.879C301.879 23.96 302.839 25.9 305.539 25.9C308.239 25.9 309.199 23.96 309.199 21.92ZM311.359 37V26.9H305.099L302.919 36.2H302.119L302.719 34.4V26.9H299.519V37H305.779L307.959 27.7H308.759L308.159 29.4V37H311.359ZM144.944 44.9H132.664V59H135.864V47.7H141.744V59H144.944V44.9ZM147.156 48.9V62.8H150.356V58.38L149.756 56.58H150.556C151.076 57.92 152.036 59.2 154.536 59.2C157.456 59.2 158.916 56.82 158.916 53.96C158.916 51.1 157.456 48.7 154.536 48.7C152.036 48.7 151.076 49.98 150.556 51.32H149.756L150.356 49.52V48.9H147.156ZM150.356 53.96C150.356 52.24 151.316 51.5 153.036 51.5C154.756 51.5 155.716 52.24 155.716 53.96C155.716 55.68 154.756 56.4 153.036 56.4C151.316 56.4 150.356 55.68 150.356 53.96ZM172.766 59V48.9H166.506L164.326 58.2H163.526L164.126 56.4V48.9H160.926V59H167.186L169.366 49.7H170.166L169.566 51.4V59H172.766ZM185.053 48.9H174.773V59H177.973V51.7H181.853V59H185.053V48.9ZM187.049 53.94C187.049 57.48 189.569 59.2 192.749 59.2C195.909 59.2 198.429 57.48 198.429 53.94C198.429 50.42 195.909 48.7 192.749 48.7C189.569 48.7 187.049 50.42 187.049 53.94ZM190.249 53.94C190.249 52.26 191.229 51.5 192.749 51.5C194.249 51.5 195.229 52.26 195.229 53.94C195.229 55.64 194.249 56.4 192.749 56.4C191.229 56.4 190.249 55.64 190.249 53.94ZM199.832 48.9V62.8H203.032V58.38L202.432 56.58H203.232C203.752 57.92 204.712 59.2 207.212 59.2C210.132 59.2 211.592 56.82 211.592 53.96C211.592 51.1 210.132 48.7 207.212 48.7C204.712 48.7 203.752 49.98 203.232 51.32H202.432L203.032 49.52V48.9H199.832ZM203.032 53.96C203.032 52.24 203.992 51.5 205.712 51.5C207.432 51.5 208.392 52.24 208.392 53.96C208.392 55.68 207.432 56.4 205.712 56.4C203.992 56.4 203.032 55.68 203.032 53.96ZM222.61 48.9H211.81V51.7H215.61V59H218.81V51.7H222.61V48.9ZM222.811 53.94C222.811 57.48 225.331 59.2 228.511 59.2C231.671 59.2 234.191 57.48 234.191 53.94C234.191 50.42 231.671 48.7 228.511 48.7C225.331 48.7 222.811 50.42 222.811 53.94ZM226.011 53.94C226.011 52.26 226.991 51.5 228.511 51.5C230.011 51.5 230.991 52.26 230.991 53.94C230.991 55.64 230.011 56.4 228.511 56.4C226.991 56.4 226.011 55.64 226.011 53.94ZM235.594 59H241.034C243.594 59 245.314 58.32 245.314 56.38C245.314 54.48 243.674 54.2 242.354 54.18V53.38C243.154 53.32 244.574 53.08 244.574 51.28C244.574 49.38 242.854 48.9 240.294 48.9H235.594V59ZM238.594 52.74V51.1H240.294C241.254 51.1 241.574 51.22 241.574 51.92C241.574 52.68 241.254 52.74 240.294 52.74H238.594ZM238.594 56.8V54.94H241.034C241.974 54.94 242.314 55.1 242.314 55.86C242.314 56.56 241.974 56.8 241.034 56.8H238.594ZM251.757 51.08H250.317V48.9H247.117V59H251.757C254.117 59 256.637 58.32 256.637 55.04C256.637 51.76 254.117 51.08 251.757 51.08ZM258.177 59H261.377V48.9H258.177V59ZM250.317 56.2V53.88H251.557C252.897 53.88 253.437 54.02 253.437 55.04C253.437 56.06 252.897 56.2 251.557 56.2H250.317ZM273.457 43.92H271.057C271.057 45.32 270.577 45.7 269.797 45.7C269.017 45.7 268.537 45.32 268.537 43.92H266.137C266.137 45.96 267.097 47.9 269.797 47.9C272.497 47.9 273.457 45.96 273.457 43.92ZM275.617 59V48.9H269.357L267.177 58.2H266.377L266.977 56.4V48.9H263.777V59H270.037L272.217 49.7H273.017L272.417 51.4V59H275.617ZM293.43 48.9H282.63V51.7H286.43V59H289.63V51.7H293.43V48.9ZM293.631 53.82C293.631 56.68 295.411 59.2 299.291 59.2C302.791 59.2 304.451 56.9 304.651 55.44H301.451C301.251 56.2 300.411 56.6 299.291 56.6C297.471 56.6 296.631 55.78 296.631 54.62H304.291V53.62C304.291 50.56 302.091 48.7 298.951 48.7C295.811 48.7 293.631 50.62 293.631 53.82ZM296.631 52.82C296.631 52.06 297.171 51.3 298.951 51.3C300.731 51.3 301.291 52.06 301.291 52.82H296.631ZM306.043 48.9V62.8H309.243V58.38L308.643 56.58H309.443C309.963 57.92 310.923 59.2 313.423 59.2C316.343 59.2 317.803 56.82 317.803 53.96C317.803 51.1 316.343 48.7 313.423 48.7C310.923 48.7 309.963 49.98 309.443 51.32H308.643L309.243 49.52V48.9H306.043ZM309.243 53.96C309.243 52.24 310.203 51.5 311.923 51.5C313.643 51.5 314.603 52.24 314.603 53.96C314.603 55.68 313.643 56.4 311.923 56.4C310.203 56.4 309.243 55.68 309.243 53.96ZM319.812 59H323.012V51.5L322.412 49.7H323.212L324.272 59H330.512L331.592 49.7H332.392L331.792 51.5V59H334.992V48.9H328.632L327.792 58.2H326.992L326.152 48.9H319.812V59ZM349.23 59V48.9H342.97L340.79 58.2H339.99L340.59 56.4V48.9H337.39V59H343.65L345.83 49.7H346.63L346.03 51.4V59H349.23ZM359.198 48.9V52.54H354.438V48.9H351.238V59H354.438V55.34H359.198V59H362.398V48.9H359.198ZM364.393 56.24C364.393 57.28 364.933 59.2 368.073 59.2C370.893 59.2 371.873 57.78 372.253 56.1H373.053L372.553 57.3V57.5C372.553 58.46 373.093 59 374.053 59H376.273V56.2H374.813V53.36C374.813 50.04 372.373 48.7 369.593 48.7C366.773 48.7 364.593 50.2 364.593 52.76H367.593C367.593 51.84 368.313 51.3 369.593 51.3C370.973 51.3 371.613 51.8 371.613 52.62L368.433 53.06C365.433 53.48 364.393 54.5 364.393 56.24ZM367.593 55.64C367.593 55.06 368.073 54.92 369.033 54.78L371.613 54.42C371.613 55.66 370.453 56.4 368.693 56.4C368.153 56.4 367.593 56.22 367.593 55.64ZM387.784 48.9H379.224C379.224 54.54 379.024 56.2 377.264 56.2V59C381.484 59 382.264 56.32 382.404 51.7H384.584V59H387.784V48.9Z" fill="#0F0F2D"/>
<defs>
<linearGradient id="paint0_linear" x1="36.6694" y1="29.6063" x2="51.313" y2="29.6063" gradientUnits="userSpaceOnUse">
<stop stop-color="#4FACFE"/>
<stop offset="1" stop-color="#00F2FE"/>
</linearGradient>
</defs>
</svg>
