<svg width="51" height="57" viewBox="0 0 51 57" fill="none" xmlns="http://www.w3.org/2000/svg">
<path d="M51 25.5C51 37.7809 42.3184 48.0342 30.7577 50.4574C29.061 50.813 26.5 51.5 25 57C24 52 22.1168 50.8314 20.5 50.51C8.81079 48.1861 0 37.872 0 25.5C0 11.4167 11.4167 0 25.5 0C39.5833 0 51 11.4167 51 25.5Z" fill="#EC483F"/>
<path d="M23.1478 16.8459C23.1478 16.3787 22.7691 16 22.302 16H18.6779C18.2108 16 17.832 16.3787 17.832 16.8459V17.9323H23.1478V16.8459Z" fill="white"/>
<path d="M24.9593 20.4698C24.9593 20.0027 24.5806 19.624 24.1135 19.624H16.8654C16.3983 19.624 16.0195 20.0027 16.0195 20.4698V21.5563H24.9593V20.4698Z" fill="white"/>
<path d="M19.4053 24.0941V25.1805H25.9278C26.2695 25.1805 26.5744 25.0217 26.7737 24.7743V24.094C26.7737 23.6269 26.3949 23.2482 25.9278 23.2482H19.2598C19.3537 23.5129 19.4053 23.7975 19.4053 24.0941Z" fill="white"/>
<path d="M36.7376 20.4698H38.6097C39.0769 20.4698 39.4556 20.0911 39.4556 19.624C39.4556 19.1568 39.0769 18.7781 38.6097 18.7781H32.2677C31.8006 18.7781 31.4219 19.1568 31.4219 19.624V21.5563H36.7377V20.4698H36.7376Z" fill="white"/>
<path d="M41.2042 23.7703C41.0732 23.4543 40.7648 23.2482 40.4227 23.2482H29.5506C29.0834 23.2482 28.7047 23.6269 28.7047 24.094C28.7047 25.6259 27.4584 26.8722 25.9265 26.8722H17.7123V24.094C17.7123 23.6269 17.3336 23.2482 16.8664 23.2482H13.2423C12.7752 23.2482 12.3965 23.6269 12.3965 24.094V33.1542C12.3965 33.6213 12.7752 34 13.2423 34H30.0815C31.1335 34 32.1226 33.5903 32.8667 32.8463L41.0208 24.6922C41.2627 24.4503 41.335 24.0865 41.2042 23.7703V23.7703Z" fill="white"/>
</svg>
