<svg width="19" height="19" viewBox="0 0 19 19" fill="none" xmlns="http://www.w3.org/2000/svg">
<path d="M14.4218 11.298C14.0622 11.298 13.7925 11.3879 13.5228 11.3879L10.9157 8.78082L13.0733 6.62326L15.8601 5.63438L17.9278 2.30815C18.0177 2.12835 18.0177 1.85866 17.9278 1.76876L16.849 0.689983C16.6692 0.510187 16.3995 0.510187 16.2197 0.600085L12.8036 2.57784L11.7248 5.45458L9.56726 7.61214L7.14001 5.00509C7.14001 4.7354 7.22991 4.4657 7.22991 4.10611C7.22991 1.76876 4.98246 0.060696 2.73501 0.600085L4.08348 1.94856C4.80266 2.66774 4.80266 3.74652 4.08348 4.4657C3.36429 5.18489 2.28552 5.18489 1.56633 4.4657L0.12796 3.20713C-0.591225 5.81418 1.83602 8.33132 4.53297 7.52224L7.14001 10.1293L6.06124 11.2081C5.43195 11.0283 4.80266 11.2081 4.35317 11.6576L0.667349 15.3434C-0.0518366 16.0626 -0.141735 17.1413 0.487552 17.8605C1.20674 18.6696 2.37541 18.6696 3.0946 17.9504L6.87032 14.1747C7.31981 13.7252 7.49961 13.006 7.31981 12.4666L8.39859 11.3879L11.0056 13.9949C10.9157 14.2646 10.9157 14.6242 10.9157 14.8939C10.9157 17.2312 13.1632 18.9393 15.4106 18.3999L14.0622 17.0514C13.343 16.3323 13.343 15.2535 14.0622 14.5343C14.7814 13.8151 15.8601 13.8151 16.5793 14.5343L17.9278 15.8828C18.5571 13.5454 16.7591 11.298 14.4218 11.298Z" fill="white"/>
</svg>
