<svg width="26" height="16" viewBox="0 0 26 16" fill="none" xmlns="http://www.w3.org/2000/svg">
<path d="M9.55729 0.751876C9.55729 0.33664 9.22065 0 8.80542 0H5.58403C5.16879 0 4.83215 0.33664 4.83215 0.751876V1.71764H9.55729V0.751876Z" fill="white"/>
<path d="M11.168 3.97319C11.168 3.55795 10.8314 3.22131 10.4162 3.22131H3.97343C3.5582 3.22131 3.22156 3.55795 3.22156 3.97319V4.93895H11.168V3.97319Z" fill="white"/>
<path d="M6.22893 7.19474V8.16045H12.0268C12.3305 8.16045 12.6015 8.01924 12.7786 7.7994V7.19469C12.7786 6.77945 12.442 6.44281 12.0268 6.44281H6.09961C6.18307 6.67815 6.22893 6.93113 6.22893 7.19474Z" fill="white"/>
<path d="M21.6374 3.97317H23.3015C23.7168 3.97317 24.0534 3.63653 24.0534 3.2213C24.0534 2.80606 23.7168 2.46942 23.3015 2.46942H17.6642C17.249 2.46942 16.9124 2.80606 16.9124 3.2213V4.93893H21.6375V3.97317H21.6374Z" fill="white"/>
<path d="M25.6068 6.90697C25.4904 6.62602 25.2163 6.44281 24.9122 6.44281H15.2481C14.8328 6.44281 14.4962 6.77945 14.4962 7.19469C14.4962 8.55638 13.3884 9.6642 12.0267 9.6642H4.72514V7.19469C4.72514 6.77945 4.3885 6.44281 3.97327 6.44281H0.751876C0.33664 6.44281 0 6.77945 0 7.19469V15.2481C0 15.6634 0.33664 16 0.751876 16H15.72C16.6551 16 17.5343 15.6358 18.1958 14.9745L25.4438 7.72636C25.6588 7.51133 25.7231 7.18797 25.6068 6.90697Z" fill="white"/>
</svg>
