<svg width="19" height="18" viewBox="0 0 19 18" fill="none" xmlns="http://www.w3.org/2000/svg">
<path d="M13.8887 0H1.30777C0.713875 0 0.232422 0.481453 0.232422 1.07534C0.232422 1.66928 0.713875 2.15069 1.30777 2.15069L3.58719 2.15322C3.91973 2.15322 4.18938 2.42283 4.18938 2.75542C4.18938 3.088 3.91973 3.35761 3.58719 3.35761H1.67876V7.92472H1.30777C0.713875 7.92472 0.232422 8.40609 0.232422 9.00006C0.232422 9.59396 0.713875 10.0754 1.30777 10.0754L3.58719 10.0785C3.91973 10.0785 4.18938 10.3481 4.18938 10.6807C4.18938 11.0133 3.91973 11.2829 3.58719 11.2829H1.67876V15.8493H1.30777C0.713875 15.8493 0.232422 16.3308 0.232422 16.9247C0.232422 17.5185 0.713875 18 1.30777 18H10.7802C9.60516 17.0394 8.85362 15.5791 8.85362 13.9466C8.85362 12.7416 9.60292 11.1452 11.1444 9.06592C12.2079 7.63141 13.2569 6.50273 13.301 6.45542L13.5177 6.22297V2.15069H13.8887C14.4826 2.15069 14.9641 1.66928 14.9641 1.07534C14.964 0.481453 14.4826 0 13.8887 0Z" fill="white"/>
<path d="M16.4166 9.94314C15.475 8.67303 14.5199 7.64544 14.5104 7.6352C14.4617 7.58298 14.3935 7.55334 14.3221 7.55334C14.2507 7.55334 14.1825 7.58298 14.1338 7.6352C14.1242 7.64544 13.1691 8.67303 12.2276 9.94314C10.9414 11.6781 10.2893 13.0248 10.2893 13.946C10.2893 16.1697 12.0985 17.979 14.3222 17.979C16.5459 17.979 18.3552 16.1698 18.3552 13.946C18.355 13.0247 17.7028 11.6781 16.4166 9.94314ZM14.7248 16.6738C14.5135 16.7238 14.2956 16.7491 14.0772 16.7491C12.5252 16.7491 11.2626 15.4865 11.2626 13.9345C11.2626 13.7205 11.3284 13.3329 11.6422 12.7012C11.6737 12.6377 11.7464 12.6062 11.8144 12.6264C11.8822 12.6466 11.9258 12.7128 11.9175 12.7832C11.9102 12.844 11.9066 12.9012 11.9066 12.9533C11.9066 14.6168 13.0898 16.0618 14.7198 16.3891C14.787 16.4026 14.8357 16.4611 14.8369 16.5295C14.8382 16.5981 14.7915 16.6581 14.7248 16.6738Z" fill="white"/>
</svg>
