<svg width="60" height="13" viewBox="0 0 60 13" fill="none" xmlns="http://www.w3.org/2000/svg">
<path d="M15.5173 7.34317V0.290527H18.05V7.2549C18.05 8.89131 19.0006 10.0162 20.8125 10.0162C22.6243 10.0162 23.5557 8.89018 23.5557 7.2549V0.290527H26.1065V7.32619C26.1065 10.2459 24.3818 12.2332 20.8125 12.2332C17.2409 12.2332 15.5173 10.2278 15.5173 7.34317Z" fill="#49B2FE"/>
<path d="M32.1248 10.3684L33.4782 8.46946C34.3055 9.3318 35.5888 10.0516 37.2071 10.0516C38.5799 10.0516 39.2476 9.41894 39.2476 8.75012C39.2476 6.67462 32.4937 8.0994 32.4937 3.68471C32.4937 1.73256 34.1822 0.114258 36.9435 0.114258C38.8085 0.114258 40.3555 0.676703 41.5166 1.75067L40.1269 3.57947C39.1785 2.70015 37.911 2.29614 36.7149 2.29614C35.642 2.29614 35.0445 2.77031 35.0445 3.47422C35.0445 5.3381 41.7803 4.08986 41.7803 8.46946C41.7803 10.6151 40.2502 12.2334 37.0849 12.2334C34.834 12.2334 33.2157 11.4763 32.1248 10.3684Z" fill="#49B2FE"/>
<path d="M47.6406 6.11787C47.6406 2.55307 50.2469 0 53.8117 0C57.3935 0 59.9997 2.55307 59.9997 6.11787C59.9997 9.68154 57.3935 12.2346 53.8117 12.2346C50.2469 12.2346 47.6406 9.68154 47.6406 6.11787ZM57.4104 6.11787C57.4104 3.90204 55.9924 2.23507 53.8117 2.23507C51.6309 2.23507 50.2299 3.90204 50.2299 6.11787C50.2299 8.31673 51.6309 10.0007 53.8117 10.0007C55.9924 10.0007 57.4104 8.31673 57.4104 6.11787Z" fill="#49B2FE"/>
<path d="M6.86025 7.55366C8.12661 7.2549 9.42917 6.14698 9.42917 4.07148C9.42917 1.89073 7.93422 0.290527 5.48866 0.290527H0V2.48825H2.49762H2.68322H5.11973C6.1224 2.48825 6.87836 3.08578 6.87836 4.07148C6.87836 5.05604 6.12127 5.6547 5.11973 5.6547H2.68322H2.49762H0.00113149V12.0215H2.49875V7.85356H4.32868L6.63165 12.0227H9.49934L6.86025 7.55366Z" fill="#49B2FE"/>
</svg>
