<svg width="43" height="39" viewBox="0 0 43 39" fill="none" xmlns="http://www.w3.org/2000/svg">
<path d="M36.7723 31.0047C35.8152 31.0047 35.3909 30.7385 34.8037 30.37C32.9237 29.0163 30.115 29.0199 28.2404 30.37C27.6532 30.7385 27.229 31.0047 26.2719 31.0047C25.3148 31.0047 24.8907 30.7385 24.3035 30.37C22.4241 29.0166 19.6153 29.0195 17.7406 30.3701C17.1535 30.7385 16.7293 31.0047 15.7723 31.0047C14.8153 31.0047 14.3911 30.7385 13.8039 30.37C11.9239 29.0164 9.11535 29.0199 7.24082 30.37C6.65364 30.7385 6.22936 31.0047 5.27233 31.0047C4.31538 31.0047 3.89118 30.7385 3.30408 30.37C2.58505 29.919 1.69036 29.3576 0.0224609 29.3576V31.8282C0.97949 31.8282 1.40361 32.0944 1.99079 32.4628C3.87685 33.8167 6.67085 33.8146 8.55378 32.4628C9.14088 32.0944 9.56516 31.8282 10.5222 31.8282C11.4792 31.8282 11.9035 32.0944 12.4906 32.4628C14.3791 33.8192 17.1771 33.8115 19.0535 32.4627C19.6406 32.0944 20.0648 31.8281 21.0218 31.8281C21.9788 31.8281 22.4031 32.0943 22.9902 32.4627C24.8692 33.8143 27.6716 33.8159 29.5533 32.4627C30.1405 32.0943 30.5647 31.8281 31.5218 31.8281C32.4789 31.8281 32.9032 32.0943 33.4905 32.4627C35.3704 33.8165 38.1793 33.8129 40.0538 32.4627C40.6411 32.0943 41.0653 31.8281 42.0225 31.8281V29.3575C40.3544 29.3575 39.4597 29.9188 38.7408 30.37C38.1537 30.7384 37.7295 31.0047 36.7723 31.0047Z" fill="#0F0F2D"/>
<path d="M38.741 25.429C38.1537 25.7975 37.7295 26.0636 36.7723 26.0636C35.8152 26.0636 35.3909 25.7975 34.8037 25.429C34.1237 24.9459 32.7674 24.2982 31.1802 24.4255C34.4922 17.2307 28.9698 8.67407 21.0225 8.7696C13.0765 8.67374 7.5517 17.232 10.8651 24.4256C9.27627 24.2985 7.92279 24.9451 7.24074 25.429C6.65356 25.7975 6.22927 26.0636 5.27224 26.0636C4.3153 26.0636 3.89109 25.7975 3.304 25.429C2.58505 24.978 1.69036 24.4166 0.0224609 24.4166V26.8872C0.97949 26.8872 1.40361 27.1533 1.99079 27.5218C3.87685 28.8757 6.67085 28.8735 8.55378 27.5218C9.14088 27.1533 9.56516 26.8872 10.5222 26.8872C11.4792 26.8872 11.9035 27.1533 12.4906 27.5218C14.3791 28.8782 17.1771 28.8705 19.0535 27.5217C19.6406 27.1533 20.0648 26.8871 21.0218 26.8871C21.9788 26.8871 22.4031 27.1533 22.9902 27.5217C24.8692 28.8733 27.6716 28.8749 29.5533 27.5217C30.1405 27.1533 30.5647 26.8871 31.5218 26.8871C32.4789 26.8871 32.9032 27.1533 33.4905 27.5217C35.3704 28.8754 38.1793 28.8719 40.0538 27.5217C40.6411 27.1533 41.0653 26.8871 42.0225 26.8871V24.4165C40.3546 24.4166 39.4599 24.9779 38.741 25.429Z" fill="#0F0F2D"/>
<path d="M36.7723 35.946C35.8152 35.946 35.3909 35.6798 34.8037 35.3114C32.9237 33.9577 30.115 33.9612 28.2404 35.3114C27.6532 35.6798 27.229 35.946 26.2719 35.946C25.3148 35.946 24.8907 35.6798 24.3035 35.3114C22.4241 33.958 19.6153 33.9609 17.7406 35.3115C17.1535 35.6798 16.7293 35.946 15.7723 35.946C14.8153 35.946 14.3911 35.6798 13.8039 35.3114C11.9239 33.9577 9.11535 33.9612 7.24082 35.3114C6.65364 35.6798 6.22936 35.946 5.27233 35.946C4.31538 35.946 3.89118 35.6798 3.30408 35.3114C2.58505 34.8603 1.69036 34.2989 0.0224609 34.2989V36.7695C0.97949 36.7695 1.40361 37.0357 1.99079 37.4042C3.87685 38.758 6.67085 38.7559 8.55378 37.4042C9.14088 37.0357 9.56516 36.7695 10.5222 36.7695C11.4792 36.7695 11.9035 37.0357 12.4906 37.4042C14.3791 38.7605 17.1771 38.7529 19.0535 37.4041C19.6406 37.0357 20.0648 36.7695 21.0218 36.7695C21.9788 36.7695 22.4031 37.0356 22.9902 37.4041C24.8692 38.7557 27.6716 38.7572 29.5533 37.4041C30.1405 37.0356 30.5647 36.7695 31.5218 36.7695C32.4789 36.7695 32.9032 37.0356 33.4905 37.4041C35.3704 38.7578 38.1793 38.7543 40.0538 37.4041C40.6411 37.0356 41.0653 36.7695 42.0225 36.7695V34.2989C40.3544 34.2989 39.4597 34.8602 38.7408 35.3113C38.1537 35.6798 37.7295 35.946 36.7723 35.946Z" fill="#0F0F2D"/>
<path d="M19.7871 0.122192H22.2577V6.2987H19.7871V0.122192Z" fill="#0F0F2D"/>
<path d="M29.3662 8.86469L33.733 4.4979L35.4797 6.24455L31.1129 10.6113L29.3662 8.86469Z" fill="#0F0F2D"/>
<path d="M34.6113 16.7986H40.7878V19.2692H34.6113V16.7986Z" fill="#0F0F2D"/>
<path d="M1.25781 16.7986H7.43432V19.2692H1.25781V16.7986Z" fill="#0F0F2D"/>
<path d="M6.55957 6.24225L8.30623 4.49559L12.673 8.86238L10.9264 10.609L6.55957 6.24225Z" fill="#0F0F2D"/>
</svg>
